<!--
 Sourced from: https://github.com/jenkins-contrib-themes/jenkins-core-theme/tree/master/images
 License: MIT
 -->
<svg width="0" height="0" class="hidden">
    <symbol xmlns="http://www.w3.org/2000/svg" viewBox="0 0 400 400" id="weather-pouring">
        <g stroke="none" stroke-width="1" fill="none" fill-rule="evenodd">
            <g transform="translate(0.000000, 1.000000)" fill="currentColor" fill-rule="nonzero">
                <path id="path0" d="M192.000 39.423 C 191.230 39.506,188.620 39.770,186.200 40.008 C 172.868 41.323,161.249 44.655,148.835 50.725 C 146.726 51.756,144.940 52.735,144.867 52.900 C 144.793 53.065,144.572 53.200,144.376 53.200 C 143.801 53.200,134.746 58.925,132.800 60.518 C 132.470 60.789,131.030 61.900,129.600 62.989 C 127.198 64.818,116.433 75.304,114.599 77.601 C 114.160 78.152,113.171 79.412,112.403 80.401 C 111.635 81.391,110.870 82.260,110.703 82.333 C 110.536 82.407,110.400 82.722,110.400 83.033 C 110.400 83.345,110.261 83.600,110.091 83.600 C 109.921 83.600,109.443 84.230,109.028 85.000 C 108.613 85.770,108.122 86.400,107.937 86.400 C 107.752 86.400,107.600 86.592,107.600 86.827 C 107.600 87.061,107.173 87.826,106.651 88.527 C 105.647 89.873,104.621 91.668,101.694 97.200 C 98.840 102.593,98.909 102.511,97.465 102.259 C 96.769 102.138,95.120 101.860,93.800 101.642 C 92.480 101.424,90.663 101.039,89.762 100.788 C 88.695 100.490,85.765 100.394,81.362 100.514 C 73.054 100.739,68.633 101.324,64.000 102.814 C 63.450 102.991,61.920 103.442,60.600 103.816 C 58.526 104.403,48.138 109.216,47.000 110.117 C 46.780 110.291,44.710 111.678,42.400 113.200 C 38.131 116.013,37.218 116.752,32.779 120.987 C 24.438 128.945,17.205 142.765,14.768 155.400 C 14.514 156.720,14.048 158.901,13.733 160.247 C 12.725 164.550,13.387 177.723,14.895 183.400 C 15.129 184.280,15.743 186.274,16.260 187.830 C 16.777 189.387,17.200 190.858,17.200 191.101 C 17.200 191.485,17.887 193.065,20.721 199.200 C 21.077 199.970,21.940 201.410,22.639 202.400 C 23.338 203.390,24.255 204.852,24.677 205.649 C 30.520 216.682,43.537 228.178,56.500 233.755 C 57.325 234.110,58.612 234.670,59.360 235.000 C 60.109 235.330,60.998 235.600,61.337 235.600 C 61.676 235.600,62.064 235.780,62.200 236.000 C 62.336 236.220,62.898 236.400,63.450 236.400 C 64.001 236.400,64.813 236.593,65.253 236.828 C 66.556 237.526,71.100 238.287,79.200 239.166 C 81.290 239.393,91.027 239.583,100.838 239.589 C 121.100 239.601,118.912 240.009,121.205 235.800 C 121.925 234.480,122.819 232.950,123.192 232.400 C 123.565 231.850,123.991 231.130,124.138 230.800 C 124.286 230.470,124.736 229.660,125.138 229.000 C 125.540 228.340,126.463 226.720,127.191 225.400 C 127.918 224.080,128.822 222.550,129.200 222.000 C 129.827 221.088,130.729 219.498,133.515 214.400 C 134.056 213.410,134.657 212.429,134.849 212.220 C 136.148 210.812,135.906 210.800,106.825 210.800 C 76.176 210.800,78.585 210.931,70.600 208.824 C 62.891 206.790,53.482 198.957,48.817 190.692 C 48.106 189.431,47.380 188.400,47.204 188.400 C 46.523 188.400,43.448 181.326,42.770 178.200 C 40.388 167.210,42.102 157.514,48.340 146.690 C 51.588 141.054,60.603 134.263,69.400 130.825 C 75.289 128.524,91.609 128.546,94.180 130.858 C 94.389 131.046,94.929 131.206,95.380 131.213 C 95.831 131.220,96.549 131.490,96.976 131.813 C 97.404 132.136,98.048 132.400,98.408 132.400 C 98.768 132.400,99.904 132.940,100.931 133.600 C 101.959 134.260,103.637 135.338,104.660 135.995 C 107.351 137.722,111.231 141.577,113.632 144.908 C 114.778 146.499,115.773 147.868,115.843 147.951 C 115.947 148.076,121.982 144.759,125.000 142.919 C 125.440 142.651,126.070 142.302,126.400 142.143 C 126.730 141.985,128.772 140.808,130.937 139.528 C 133.103 138.247,134.956 137.200,135.056 137.200 C 135.227 137.200,139.602 134.484,139.967 134.151 C 140.243 133.900,139.149 131.965,137.116 129.106 C 136.062 127.624,135.200 126.298,135.200 126.158 C 135.200 125.889,130.944 121.344,127.078 117.485 C 124.575 114.987,124.550 114.868,125.927 112.000 C 126.297 111.230,126.735 110.540,126.900 110.467 C 127.065 110.393,127.200 110.073,127.200 109.755 C 127.200 108.849,133.300 99.403,134.792 98.000 C 134.909 97.890,135.542 97.080,136.198 96.200 C 139.503 91.771,153.017 80.000,154.798 80.000 C 155.019 80.000,155.200 79.863,155.200 79.695 C 155.200 79.527,155.549 79.212,155.974 78.995 C 163.820 74.995,167.828 73.134,170.200 72.391 C 171.080 72.115,172.160 71.743,172.600 71.563 C 174.442 70.814,177.254 70.127,183.400 68.928 C 187.643 68.100,202.759 67.752,206.600 68.393 C 212.619 69.399,218.405 70.714,220.600 71.575 C 221.040 71.748,222.120 72.115,223.000 72.391 C 234.525 76.003,249.887 86.990,258.002 97.425 C 261.389 101.780,266.000 109.013,266.000 109.970 C 266.000 110.206,266.180 110.400,266.400 110.400 C 266.620 110.400,266.800 110.622,266.800 110.894 C 266.800 111.166,267.232 112.291,267.760 113.394 C 269.927 117.920,271.602 122.341,271.894 124.304 C 272.001 125.021,272.249 125.706,272.444 125.827 C 272.640 125.948,272.800 126.565,272.800 127.198 C 272.800 127.830,273.001 128.855,273.246 129.474 C 275.395 134.897,275.373 159.140,273.216 163.170 C 272.030 165.387,272.737 166.584,275.600 167.203 C 276.370 167.370,278.080 167.815,279.400 168.192 C 280.720 168.569,282.430 169.019,283.200 169.192 C 283.970 169.365,285.635 169.797,286.900 170.153 C 288.165 170.509,290.235 171.089,291.500 171.443 C 292.765 171.797,294.430 172.265,295.200 172.484 C 299.426 173.685,299.854 173.508,300.729 170.200 C 303.055 161.402,304.120 144.526,302.938 135.200 C 302.701 133.330,302.633 131.659,302.786 131.487 C 303.733 130.427,327.091 131.599,329.295 132.816 C 329.677 133.027,330.249 133.200,330.567 133.200 C 331.706 133.200,338.006 136.436,341.200 138.662 C 343.199 140.055,348.503 145.428,350.022 147.599 C 352.205 150.719,354.649 155.762,355.548 159.000 C 356.964 164.097,357.200 165.802,357.200 170.932 C 357.200 177.680,356.250 182.112,353.456 188.400 C 352.765 189.956,350.667 193.385,350.316 193.533 C 350.142 193.607,350.000 193.830,350.000 194.029 C 350.000 194.745,344.087 201.074,341.800 202.805 C 338.758 205.107,334.434 207.430,331.000 208.605 C 325.135 210.612,326.298 210.539,296.600 210.776 L 268.600 211.000 259.335 224.800 C 254.239 232.390,250.054 238.835,250.035 239.121 C 249.986 239.849,321.465 239.587,326.000 238.843 C 332.976 237.699,337.664 236.538,341.800 234.929 C 347.594 232.675,352.425 230.086,357.200 226.674 C 361.131 223.866,364.213 221.019,370.220 214.646 C 372.039 212.717,376.298 206.030,378.306 201.951 C 391.572 175.006,386.593 143.476,365.784 122.668 C 358.539 115.423,350.163 110.023,341.200 106.820 C 340.430 106.544,339.440 106.177,339.000 106.004 C 338.560 105.830,337.120 105.409,335.800 105.068 C 327.313 102.874,322.182 102.400,306.933 102.400 L 294.101 102.400 292.159 98.500 C 291.091 96.355,289.629 93.664,288.909 92.519 C 288.189 91.375,287.600 90.328,287.600 90.193 C 287.600 90.057,287.150 89.357,286.600 88.636 C 286.050 87.914,285.600 87.116,285.600 86.862 C 285.600 86.608,285.465 86.399,285.300 86.397 C 285.135 86.396,284.550 85.721,284.000 84.897 C 273.674 69.436,254.959 54.516,237.000 47.427 C 235.460 46.819,233.609 46.069,232.886 45.761 C 232.164 45.452,231.230 45.200,230.810 45.200 C 230.390 45.200,229.948 45.040,229.827 44.844 C 229.706 44.649,229.021 44.393,228.304 44.277 C 226.777 44.030,223.744 43.231,222.600 42.774 C 222.160 42.598,221.260 42.364,220.600 42.254 C 219.940 42.143,218.500 41.850,217.400 41.601 C 210.579 40.060,196.931 38.890,192.000 39.423 " stroke="none" fill="#999999" fill-rule="evenodd"></path><path id="path1" d="M193.853 187.991 C 193.274 188.867,192.800 189.674,192.800 189.784 C 192.800 189.895,192.113 191.114,191.274 192.493 C 190.435 193.872,189.623 195.270,189.471 195.600 C 189.318 195.930,188.860 196.740,188.453 197.400 C 188.046 198.060,185.596 202.290,183.009 206.800 C 180.421 211.310,178.170 215.180,178.006 215.400 C 177.842 215.620,177.245 216.639,176.681 217.664 C 174.989 220.740,169.748 229.781,168.637 231.542 C 168.067 232.445,167.600 233.275,167.600 233.385 C 167.600 233.496,166.880 234.762,166.000 236.200 C 165.120 237.638,164.400 238.910,164.400 239.026 C 164.400 239.143,163.770 240.223,163.000 241.427 C 162.230 242.631,161.600 243.699,161.600 243.801 C 161.600 243.903,160.880 245.162,160.000 246.600 C 159.120 248.038,158.400 249.310,158.400 249.426 C 158.400 249.543,157.770 250.623,157.000 251.827 C 156.230 253.031,155.600 254.099,155.600 254.201 C 155.600 254.303,154.880 255.562,154.000 257.000 C 153.120 258.438,152.400 259.710,152.400 259.826 C 152.400 259.943,151.770 261.023,151.000 262.227 C 150.230 263.431,149.600 264.499,149.600 264.601 C 149.600 264.703,148.880 265.962,148.000 267.400 C 147.120 268.838,146.400 270.105,146.400 270.217 C 146.400 270.328,145.704 271.540,144.854 272.910 C 144.003 274.279,142.248 277.278,140.954 279.573 C 139.659 281.868,138.204 284.388,137.721 285.173 C 137.237 285.958,136.596 287.050,136.295 287.600 C 134.542 290.808,132.989 293.505,131.965 295.120 C 131.324 296.130,130.800 297.101,130.800 297.278 C 130.800 297.455,142.815 297.603,157.500 297.606 C 172.185 297.609,184.410 297.746,184.667 297.909 C 185.177 298.234,184.914 299.455,183.029 305.500 C 181.341 310.915,180.062 315.004,178.963 318.500 C 178.392 320.315,177.773 322.340,177.587 323.000 C 177.242 324.223,176.106 327.907,174.195 334.000 C 173.608 335.870,172.890 338.210,172.600 339.200 C 172.310 340.190,171.589 342.530,170.999 344.400 C 170.408 346.270,169.780 348.340,169.601 349.000 C 169.423 349.660,168.896 351.370,168.430 352.800 C 167.965 354.230,167.108 356.930,166.528 358.800 C 165.948 360.670,165.076 363.460,164.591 365.000 C 164.106 366.540,163.413 368.790,163.052 370.000 C 162.690 371.210,162.016 373.370,161.554 374.800 C 159.800 380.234,160.002 382.053,161.942 378.281 C 163.136 375.958,165.055 372.546,166.374 370.400 C 166.982 369.410,168.975 365.990,170.802 362.800 C 172.629 359.610,174.636 356.142,175.262 355.094 C 175.888 354.046,176.400 353.092,176.400 352.975 C 176.400 352.858,177.000 351.824,177.733 350.678 C 179.030 348.650,179.644 347.585,182.391 342.600 C 183.118 341.280,184.022 339.750,184.400 339.200 C 184.778 338.650,185.682 337.120,186.409 335.800 C 187.137 334.480,188.060 332.860,188.462 332.200 C 188.864 331.540,189.319 330.730,189.472 330.400 C 189.626 330.070,190.347 328.864,191.076 327.719 C 191.804 326.575,192.400 325.554,192.400 325.452 C 192.400 325.349,193.499 323.406,194.841 321.133 C 196.184 318.860,197.735 316.192,198.287 315.204 C 198.840 314.216,201.009 310.436,203.108 306.804 C 205.207 303.172,207.247 299.627,207.641 298.926 C 208.035 298.225,208.785 296.965,209.308 296.126 C 209.831 295.287,210.382 294.330,210.533 294.000 C 210.683 293.670,211.135 292.860,211.537 292.200 C 211.939 291.540,212.734 290.163,213.304 289.140 C 213.873 288.117,214.803 286.545,215.370 285.648 C 215.936 284.750,216.400 283.919,216.400 283.800 C 216.400 283.681,216.821 282.913,217.336 282.092 C 217.851 281.271,218.732 279.790,219.293 278.800 C 219.853 277.810,221.204 275.470,222.293 273.600 C 223.956 270.748,224.172 270.156,223.637 269.928 C 223.287 269.779,213.865 269.644,202.700 269.628 C 180.724 269.598,181.617 269.702,183.400 267.364 C 183.950 266.643,184.400 265.944,184.400 265.810 C 184.400 265.676,185.120 264.591,186.000 263.400 C 186.880 262.209,187.600 261.046,187.600 260.817 C 187.600 260.588,187.780 260.400,188.000 260.400 C 188.220 260.400,188.400 260.257,188.400 260.082 C 188.400 259.856,229.967 197.076,234.008 191.200 C 236.326 187.829,236.742 187.011,236.286 186.721 C 236.019 186.551,226.599 186.409,215.353 186.406 L 194.906 186.400 193.853 187.991 " stroke="none" fill="#e3d236" fill-rule="evenodd"></path>
            </g>
        </g>
    </symbol>

    <symbol xmlns="http://www.w3.org/2000/svg" viewBox="0 0 400 400" id="weather-rainy">
        <g stroke="none" stroke-width="1" fill="none" fill-rule="evenodd">
            <g transform="translate(0.000000, 1.000000)" fill="currentColor" fill-rule="nonzero">
                <path id="path0" d="M187.400 58.809 C 186.520 58.999,184.899 59.164,183.797 59.177 C 182.696 59.190,181.166 59.387,180.397 59.615 C 179.629 59.843,177.920 60.184,176.600 60.372 C 174.072 60.734,167.559 62.260,166.200 62.809 C 165.760 62.987,164.410 63.445,163.200 63.827 C 161.990 64.209,160.460 64.737,159.800 65.001 C 159.140 65.264,157.970 65.708,157.200 65.987 C 148.877 69.001,137.108 75.843,129.150 82.296 C 125.212 85.490,116.400 94.253,113.961 97.400 C 111.239 100.914,106.400 107.596,106.400 107.840 C 106.400 107.970,105.995 108.642,105.500 109.333 C 104.490 110.742,104.610 110.527,101.369 116.744 L 99.000 121.288 97.000 121.034 C 95.900 120.895,94.010 120.577,92.800 120.327 C 86.142 118.955,68.895 119.980,63.200 122.087 C 62.870 122.209,61.430 122.639,60.000 123.043 C 57.362 123.789,48.755 127.923,46.506 129.524 C 45.830 130.006,45.175 130.400,45.052 130.400 C 43.710 130.400,32.088 140.185,29.374 143.600 C 27.317 146.188,23.878 150.993,23.131 152.322 C 19.332 159.082,16.161 167.398,14.789 174.200 C 14.523 175.520,14.039 177.735,13.714 179.123 C 12.445 184.530,13.545 198.547,15.792 205.600 C 16.387 207.470,17.014 209.565,17.185 210.256 C 17.356 210.947,18.149 212.889,18.948 214.572 C 19.747 216.254,20.400 217.720,20.400 217.830 C 20.400 217.939,21.480 219.726,22.800 221.800 C 24.120 223.874,25.200 225.673,25.200 225.797 C 25.200 226.953,32.068 235.280,37.000 240.104 C 43.017 245.989,52.909 251.920,61.200 254.615 C 63.070 255.223,64.960 255.854,65.400 256.018 C 66.197 256.315,71.161 257.348,74.200 257.850 C 75.080 257.995,89.795 258.182,106.900 258.266 L 138.000 258.419 138.000 244.236 L 138.000 230.053 107.500 229.898 C 84.592 229.782,76.602 229.619,75.400 229.243 C 74.520 228.968,72.900 228.471,71.800 228.138 C 65.548 226.245,58.677 222.013,54.600 217.546 C 52.498 215.242,48.000 208.803,48.000 208.098 C 48.000 207.871,47.740 207.586,47.422 207.464 C 46.881 207.256,44.612 202.871,43.665 200.200 C 37.550 182.960,46.965 160.071,63.200 152.705 C 63.970 152.356,65.843 151.504,67.361 150.811 C 68.880 150.119,70.950 149.384,71.961 149.177 C 72.973 148.970,74.790 148.599,76.000 148.353 C 78.570 147.830,88.166 148.130,90.600 148.809 C 93.638 149.657,95.004 150.094,96.200 150.599 C 96.860 150.878,98.030 151.348,98.800 151.643 C 103.143 153.307,110.201 159.204,113.589 164.000 C 114.755 165.650,115.764 167.064,115.831 167.143 C 115.898 167.222,118.327 165.917,121.230 164.243 C 124.132 162.569,126.663 161.200,126.853 161.200 C 127.044 161.200,127.200 161.041,127.200 160.847 C 127.200 160.652,127.515 160.392,127.900 160.268 C 128.285 160.144,129.500 159.506,130.600 158.849 C 131.700 158.193,133.262 157.293,134.071 156.850 C 136.723 155.395,137.362 155.006,137.887 154.526 C 138.172 154.266,138.764 153.938,139.202 153.799 C 139.641 153.660,140.000 153.369,140.000 153.153 C 140.000 151.887,135.169 144.812,132.252 141.806 C 123.817 133.115,124.458 134.350,126.331 130.400 C 133.857 114.537,149.814 99.715,166.800 92.812 C 168.010 92.320,169.360 91.769,169.800 91.587 C 170.594 91.260,173.130 90.497,176.200 89.664 C 178.252 89.106,182.723 88.157,185.824 87.620 C 188.964 87.076,204.236 87.076,207.376 87.620 C 215.769 89.074,222.848 91.130,228.596 93.785 C 230.280 94.563,231.810 95.200,231.996 95.200 C 232.181 95.200,232.393 95.335,232.467 95.500 C 232.540 95.665,233.320 96.156,234.200 96.590 C 242.649 100.763,253.996 110.798,260.241 119.621 C 263.896 124.784,265.574 127.650,267.725 132.400 C 271.093 139.841,272.817 145.598,274.380 154.624 C 274.924 157.764,274.924 173.036,274.380 176.176 C 274.149 177.509,273.698 179.770,273.377 181.200 C 272.451 185.324,272.651 185.722,276.000 186.440 C 276.770 186.605,278.480 187.033,279.800 187.392 C 281.120 187.750,282.830 188.200,283.600 188.390 C 284.370 188.581,285.990 189.035,287.200 189.400 C 288.410 189.765,290.030 190.216,290.800 190.402 C 291.570 190.588,293.280 191.036,294.600 191.398 C 299.791 192.822,300.228 192.688,300.645 189.549 C 300.788 188.467,301.062 187.485,301.253 187.367 C 301.444 187.249,301.600 186.686,301.600 186.116 C 301.600 185.546,301.856 183.712,302.169 182.040 C 303.634 174.216,303.925 163.702,302.960 153.454 C 302.623 149.883,302.313 150.009,311.400 150.028 C 322.436 150.050,326.524 150.626,332.400 152.987 C 342.548 157.063,349.693 164.202,354.431 175.000 C 358.100 183.362,358.100 196.638,354.431 205.000 C 349.658 215.878,342.642 222.886,332.392 227.013 C 325.380 229.837,323.748 229.953,290.900 229.978 L 262.800 230.000 262.800 244.200 L 262.800 258.400 292.854 258.400 C 312.047 258.400,323.864 258.247,325.554 257.977 C 329.249 257.386,334.409 256.373,335.600 256.004 C 336.150 255.834,337.680 255.366,339.000 254.965 C 340.320 254.564,341.571 254.093,341.780 253.918 C 341.989 253.743,342.398 253.600,342.688 253.600 C 344.113 253.600,354.093 248.147,357.992 245.239 C 358.758 244.667,359.748 243.930,360.192 243.600 C 361.538 242.601,370.133 233.908,371.408 232.257 C 394.040 202.951,388.993 159.127,360.392 136.594 C 357.974 134.689,356.402 133.601,353.400 131.756 C 349.760 129.519,343.523 126.400,342.690 126.400 C 342.384 126.400,342.001 126.268,341.840 126.107 C 341.134 125.401,333.125 123.247,327.800 122.331 C 326.480 122.104,318.382 121.802,309.804 121.659 L 294.209 121.400 292.579 118.200 C 288.401 110.000,283.391 102.256,279.004 97.218 C 273.752 91.187,270.813 88.248,264.782 82.996 C 258.012 77.100,246.903 70.423,237.800 66.777 C 235.600 65.896,233.487 65.001,233.105 64.787 C 232.723 64.574,231.969 64.400,231.429 64.400 C 230.889 64.400,230.349 64.240,230.228 64.045 C 230.107 63.850,229.332 63.564,228.504 63.410 C 227.677 63.255,226.820 62.986,226.600 62.812 C 226.380 62.637,225.570 62.393,224.800 62.268 C 222.307 61.864,218.862 60.995,218.560 60.694 C 218.399 60.532,217.588 60.400,216.759 60.400 C 215.930 60.400,214.745 60.207,214.126 59.972 C 211.286 58.891,191.092 58.013,187.400 58.809 " stroke="none" fill="#999999" fill-rule="evenodd"></path><path id="path1" d="M220.800 206.693 C 212.550 209.438,205.440 211.829,205.000 212.008 C 204.560 212.186,203.210 212.644,202.000 213.026 C 174.955 221.551,156.301 245.638,159.138 268.370 C 161.180 284.738,176.293 294.477,192.974 290.174 C 196.860 289.172,199.770 288.260,200.180 287.918 C 200.389 287.743,200.796 287.600,201.084 287.600 C 206.324 287.600,221.881 274.844,228.159 265.400 C 236.365 253.058,237.195 249.218,237.157 223.800 C 237.130 205.864,236.959 201.937,236.200 201.783 C 235.980 201.738,229.050 203.948,220.800 206.693 M128.200 269.670 C 127.100 270.106,125.660 270.607,125.000 270.783 C 124.340 270.959,122.810 271.456,121.600 271.889 C 120.390 272.322,118.410 272.989,117.200 273.372 C 115.990 273.755,114.640 274.214,114.200 274.392 C 113.760 274.570,108.990 276.165,103.600 277.936 C 90.258 282.321,88.343 283.017,85.050 284.675 C 82.580 285.919,76.582 289.692,76.000 290.368 C 75.890 290.495,74.926 291.303,73.857 292.162 C 69.942 295.309,65.649 300.010,62.862 304.200 C 61.838 305.740,60.910 307.090,60.800 307.200 C 59.936 308.064,56.907 314.478,55.888 317.600 C 54.589 321.584,54.391 322.349,53.814 325.609 C 52.883 330.878,53.289 337.892,54.730 341.400 C 59.475 352.959,67.099 358.000,79.835 358.000 C 100.339 358.000,122.609 340.566,129.396 319.200 C 129.990 317.330,130.667 315.260,130.899 314.600 C 131.417 313.129,131.806 281.712,131.401 274.100 C 131.088 268.242,131.246 268.461,128.200 269.670 " stroke="none" fill="#5999ce" fill-rule="evenodd"></path>
            </g>
        </g>
    </symbol>

    <symbol xmlns="http://www.w3.org/2000/svg" viewBox="0 0 400 400" id="weather-cloudy">
        <g stroke="none" stroke-width="1" fill="none" fill-rule="evenodd">
            <g transform="translate(0.000000, 4.000000)" fill="currentColor" fill-rule="nonzero">
                <path id="path0" d="M189.966 71.764 C 189.837 71.894,187.767 72.183,185.366 72.405 C 182.965 72.627,179.650 73.087,178.000 73.428 C 176.350 73.768,174.280 74.194,173.400 74.373 C 172.520 74.552,170.720 75.007,169.400 75.384 C 168.080 75.761,166.460 76.216,165.800 76.396 C 163.983 76.891,158.957 78.728,156.861 79.663 C 152.986 81.392,152.467 81.600,152.040 81.600 C 151.798 81.600,151.600 81.780,151.600 82.000 C 151.600 82.220,151.345 82.400,151.032 82.400 C 150.504 82.400,148.051 83.546,147.600 84.003 C 147.490 84.115,146.410 84.726,145.200 85.361 C 143.990 85.996,141.944 87.210,140.654 88.058 C 139.364 88.906,138.164 89.600,137.988 89.600 C 137.811 89.600,137.607 89.753,137.533 89.940 C 137.460 90.127,136.614 90.773,135.654 91.374 C 130.277 94.743,117.784 106.665,113.412 112.600 C 112.764 113.480,112.091 114.260,111.917 114.333 C 111.742 114.407,111.600 114.645,111.600 114.862 C 111.600 115.079,111.375 115.508,111.100 115.815 C 110.163 116.859,109.784 117.400,107.742 120.600 C 105.383 124.297,102.367 129.741,101.129 132.534 L 100.272 134.469 98.436 134.256 C 97.426 134.139,95.520 133.849,94.200 133.612 C 88.512 132.588,79.773 132.278,75.758 132.956 C 73.663 133.310,71.237 133.600,70.368 133.600 C 69.500 133.600,68.477 133.755,68.095 133.944 C 66.853 134.558,63.314 135.600,62.470 135.600 C 62.017 135.600,61.536 135.780,61.400 136.000 C 61.264 136.220,60.748 136.400,60.253 136.400 C 59.758 136.400,59.004 136.664,58.576 136.987 C 58.149 137.310,57.571 137.580,57.292 137.587 C 57.013 137.594,56.071 138.050,55.200 138.600 C 54.329 139.150,53.429 139.600,53.200 139.600 C 52.971 139.600,52.071 140.050,51.200 140.600 C 50.329 141.150,49.342 141.600,49.008 141.600 C 48.674 141.600,48.400 141.739,48.400 141.909 C 48.400 142.079,47.725 142.572,46.900 143.005 C 46.075 143.438,45.256 144.019,45.080 144.296 C 44.904 144.573,44.499 144.800,44.180 144.800 C 43.861 144.800,43.600 144.980,43.600 145.200 C 43.600 145.420,43.420 145.600,43.201 145.600 C 42.708 145.600,38.996 148.243,37.583 149.600 C 37.010 150.150,35.449 151.612,34.112 152.848 C 32.776 154.085,30.636 156.515,29.357 158.248 C 28.078 159.982,26.709 161.749,26.316 162.175 C 25.922 162.602,25.600 163.084,25.600 163.247 C 25.600 163.410,25.375 163.783,25.100 164.078 C 24.825 164.372,24.241 165.329,23.802 166.206 C 23.363 167.083,22.405 168.876,21.672 170.191 C 20.176 172.878,16.827 182.932,15.807 187.800 C 15.438 189.560,14.960 191.630,14.744 192.400 C 13.614 196.431,14.976 213.519,16.800 218.200 C 16.971 218.640,17.430 220.170,17.819 221.600 C 18.821 225.280,23.017 233.788,24.220 234.576 C 24.759 234.929,25.200 235.417,25.200 235.659 C 25.200 235.901,25.920 237.177,26.800 238.495 C 27.680 239.813,28.400 241.036,28.400 241.212 C 28.400 241.389,28.546 241.593,28.725 241.667 C 28.904 241.740,29.793 242.813,30.701 244.050 C 32.932 247.091,39.648 253.832,42.600 255.993 C 43.920 256.959,45.060 257.896,45.133 258.075 C 45.207 258.254,45.449 258.400,45.672 258.400 C 45.894 258.400,46.641 258.805,47.330 259.300 C 49.524 260.875,58.670 265.600,59.525 265.600 C 59.792 265.600,60.323 265.764,60.705 265.965 C 62.949 267.142,71.524 269.326,76.000 269.860 C 80.428 270.389,324.050 270.217,328.000 269.683 C 331.986 269.143,335.823 268.310,336.240 267.894 C 336.401 267.732,336.902 267.600,337.353 267.600 C 339.464 267.600,353.171 261.629,354.800 260.000 C 354.910 259.890,356.344 258.900,357.987 257.800 C 362.959 254.470,372.347 244.787,375.438 239.800 C 375.847 239.140,376.276 238.510,376.391 238.400 C 377.326 237.506,381.380 228.926,382.723 225.000 C 388.030 209.480,387.807 192.334,382.118 178.400 C 381.803 177.630,381.399 176.640,381.219 176.200 C 379.954 173.104,377.108 167.709,375.700 165.737 C 375.205 165.044,374.800 164.294,374.800 164.072 C 374.800 163.849,374.659 163.607,374.487 163.533 C 374.314 163.460,373.280 162.230,372.188 160.800 C 366.857 153.817,357.075 145.809,349.200 141.981 C 345.800 140.329,341.623 138.625,339.500 138.024 C 338.675 137.791,337.325 137.388,336.500 137.129 C 331.503 135.561,326.899 135.158,310.400 134.846 C 301.930 134.685,294.996 134.520,294.991 134.477 C 294.986 134.435,294.651 133.725,294.247 132.900 C 293.842 132.075,293.380 131.130,293.219 130.800 C 292.800 129.938,290.396 125.613,289.551 124.200 C 289.156 123.540,288.540 122.423,288.180 121.718 C 287.820 121.014,287.273 120.226,286.963 119.969 C 286.653 119.712,286.400 119.336,286.400 119.134 C 286.400 118.931,285.950 118.280,285.400 117.687 C 284.850 117.093,284.400 116.396,284.400 116.137 C 284.400 115.879,284.265 115.607,284.100 115.533 C 283.935 115.460,282.990 114.320,282.000 113.001 C 277.579 107.109,268.891 98.421,262.999 94.000 C 261.680 93.010,260.540 92.065,260.467 91.900 C 260.393 91.735,260.121 91.600,259.863 91.600 C 259.604 91.600,258.907 91.150,258.313 90.600 C 257.720 90.050,257.069 89.600,256.866 89.600 C 256.664 89.600,256.288 89.347,256.031 89.037 C 255.774 88.727,254.986 88.180,254.282 87.820 C 253.577 87.460,252.460 86.844,251.800 86.449 C 247.357 83.793,243.510 81.859,238.600 79.813 C 237.720 79.446,236.640 78.985,236.200 78.788 C 235.760 78.592,234.410 78.128,233.200 77.758 C 231.990 77.387,230.829 76.930,230.620 76.742 C 230.411 76.554,229.657 76.400,228.944 76.400 C 228.231 76.400,227.536 76.220,227.400 76.000 C 227.264 75.780,226.696 75.600,226.137 75.600 C 225.578 75.600,224.554 75.344,223.860 75.031 C 223.167 74.718,221.970 74.373,221.200 74.264 C 220.430 74.154,218.360 73.758,216.600 73.384 C 211.013 72.196,190.755 70.964,189.966 71.764 M207.603 100.415 C 208.371 100.643,210.080 100.994,211.400 101.194 C 215.215 101.775,217.722 102.292,218.800 102.720 C 219.350 102.938,220.610 103.337,221.600 103.606 C 222.590 103.876,223.940 104.325,224.600 104.606 C 225.260 104.886,226.340 105.331,227.000 105.595 C 227.660 105.858,228.710 106.327,229.332 106.637 C 229.955 106.947,230.720 107.200,231.032 107.200 C 231.345 107.200,231.600 107.380,231.600 107.600 C 231.600 107.820,231.949 108.000,232.376 108.000 C 232.803 108.000,233.261 108.175,233.393 108.389 C 233.526 108.603,234.301 109.089,235.117 109.469 C 236.821 110.263,240.503 112.434,240.800 112.820 C 240.910 112.963,241.767 113.561,242.705 114.148 C 247.021 116.852,255.719 124.991,259.003 129.400 C 259.659 130.280,260.296 131.090,260.420 131.200 C 260.957 131.679,265.927 139.538,266.542 140.883 C 266.916 141.699,267.397 142.474,267.611 142.607 C 267.825 142.739,268.000 143.197,268.000 143.624 C 268.000 144.051,268.180 144.400,268.400 144.400 C 268.620 144.400,268.800 144.655,268.800 144.968 C 268.800 145.280,269.053 146.045,269.363 146.668 C 269.673 147.290,270.142 148.340,270.405 149.000 C 270.669 149.660,271.114 150.740,271.394 151.400 C 271.675 152.060,272.124 153.410,272.394 154.400 C 272.663 155.390,273.073 156.650,273.304 157.200 C 273.536 157.750,273.871 159.010,274.048 160.000 C 274.225 160.990,274.669 163.240,275.035 165.000 C 276.514 172.123,276.078 191.660,274.367 194.895 C 274.165 195.277,274.000 196.202,274.000 196.952 C 274.000 198.404,274.291 198.641,276.800 199.228 C 279.759 199.920,281.827 200.508,282.495 200.847 C 282.877 201.041,283.520 201.200,283.923 201.200 C 284.327 201.200,285.455 201.449,286.429 201.753 C 287.403 202.057,289.010 202.518,290.000 202.777 C 292.647 203.470,296.027 204.403,297.428 204.828 C 300.312 205.701,301.565 204.947,301.587 202.324 C 301.594 201.512,301.780 200.736,302.000 200.600 C 302.220 200.464,302.400 199.777,302.400 199.074 C 302.400 198.370,302.591 197.166,302.823 196.397 C 303.990 192.548,304.558 178.154,303.985 167.000 L 303.800 163.400 313.800 163.276 C 323.660 163.154,327.231 163.482,330.600 164.820 C 331.040 164.995,332.300 165.457,333.400 165.848 C 342.639 169.129,352.207 178.757,355.612 188.200 C 355.771 188.640,356.131 189.540,356.413 190.200 C 358.351 194.737,358.745 204.546,357.271 211.600 C 355.300 221.043,347.764 231.368,339.188 236.377 C 337.009 237.649,332.931 239.551,331.800 239.823 C 331.140 239.981,330.420 240.244,330.200 240.408 C 329.980 240.571,329.170 240.807,328.400 240.930 C 327.630 241.054,326.100 241.335,325.000 241.554 C 322.347 242.082,80.967 242.104,78.300 241.576 C 77.255 241.369,75.635 241.046,74.700 240.858 C 69.096 239.729,61.626 235.581,56.668 230.846 C 54.725 228.990,50.000 222.796,50.000 222.105 C 50.000 221.901,49.280 221.155,48.400 220.448 C 47.520 219.741,46.803 218.946,46.806 218.681 C 46.812 218.275,46.014 216.467,44.345 213.105 C 44.155 212.723,44.000 211.981,44.000 211.456 C 44.000 210.930,43.730 209.735,43.400 208.800 C 42.553 206.401,42.578 197.174,43.442 193.200 C 44.085 190.238,44.230 189.758,45.188 187.400 C 45.456 186.740,45.947 185.390,46.280 184.400 C 46.612 183.410,47.135 182.316,47.442 181.969 C 47.749 181.621,48.000 181.188,48.000 181.006 C 48.000 180.824,48.450 180.086,49.000 179.364 C 49.550 178.643,50.000 177.876,50.000 177.660 C 50.000 177.008,55.942 170.901,57.526 169.924 C 58.337 169.424,59.394 168.674,59.876 168.257 C 61.098 167.197,65.090 165.075,69.200 163.299 C 76.066 160.332,88.771 160.297,96.400 163.223 C 97.610 163.688,98.960 164.172,99.400 164.300 C 102.476 165.192,112.655 173.238,114.000 175.839 C 114.674 177.144,114.807 177.340,116.102 178.938 L 117.024 180.075 119.212 178.816 C 120.415 178.123,121.715 177.455,122.100 177.331 C 122.485 177.208,122.800 176.948,122.800 176.753 C 122.800 176.559,122.984 176.400,123.208 176.400 C 123.432 176.400,124.287 175.978,125.108 175.463 C 126.378 174.665,128.742 173.323,132.200 171.437 C 132.640 171.196,133.270 170.795,133.600 170.545 C 133.930 170.294,135.154 169.574,136.321 168.945 C 141.003 166.418,141.386 166.106,140.752 165.342 C 140.500 165.039,140.003 164.276,139.647 163.648 C 137.713 160.233,134.747 156.488,130.623 152.252 C 125.173 146.655,125.135 146.386,128.918 140.214 C 129.183 139.782,130.114 138.252,130.987 136.814 C 131.860 135.376,132.715 134.140,132.887 134.067 C 133.059 133.993,133.200 133.721,133.200 133.463 C 133.200 133.204,133.605 132.544,134.100 131.996 C 134.595 131.448,135.527 130.280,136.171 129.400 C 137.930 126.995,145.922 118.939,148.200 117.274 C 149.300 116.471,150.648 115.405,151.196 114.907 C 151.744 114.408,152.404 114.000,152.663 114.000 C 152.921 114.000,153.193 113.843,153.267 113.650 C 153.432 113.217,158.667 110.000,159.207 110.000 C 159.423 110.000,159.600 109.820,159.600 109.600 C 159.600 109.380,159.938 109.200,160.351 109.200 C 160.764 109.200,161.326 108.930,161.600 108.600 C 161.874 108.270,162.436 108.000,162.849 108.000 C 163.262 108.000,163.600 107.820,163.600 107.600 C 163.600 107.380,163.855 107.200,164.168 107.200 C 164.480 107.200,165.245 106.947,165.868 106.637 C 166.490 106.327,167.540 105.858,168.200 105.595 C 168.860 105.331,169.940 104.886,170.600 104.606 C 171.260 104.325,172.610 103.877,173.600 103.610 C 174.590 103.342,175.991 102.870,176.714 102.562 C 177.436 102.253,178.640 102.000,179.390 102.000 C 180.140 102.000,180.864 101.820,181.000 101.600 C 181.136 101.380,182.002 101.192,182.924 101.182 C 183.846 101.173,185.500 100.915,186.600 100.609 C 189.048 99.930,205.455 99.778,207.603 100.415 " stroke="none" fill="#444444" fill-rule="evenodd"></path>
            </g>
        </g>
    </symbol>

    <symbol xmlns="http://www.w3.org/2000/svg" viewBox="0 0 400 400" id="weather-partly-cloudy">
        <g stroke="none" stroke-width="1" fill="none" fill-rule="evenodd">
            <g fill="currentColor" fill-rule="nonzero">
                <path id="path0" d="M145.400 95.815 C 116.592 99.853,92.255 116.836,78.931 142.200 L 76.829 146.200 74.515 146.089 C 73.242 146.028,71.570 145.804,70.800 145.592 C 67.238 144.607,53.772 145.316,48.800 146.751 C 48.030 146.973,46.770 147.322,46.000 147.526 C 44.308 147.975,41.298 149.165,40.200 149.820 C 39.760 150.082,37.967 151.061,36.215 151.995 C 18.409 161.491,7.682 178.483,6.550 198.987 C 6.019 208.596,10.382 224.966,14.455 228.650 C 14.912 229.062,15.612 230.041,16.012 230.824 C 22.510 243.556,38.965 254.775,55.000 257.406 C 60.420 258.295,259.792 258.300,264.848 257.410 C 299.538 251.308,320.044 215.988,307.971 183.132 C 301.759 166.225,287.503 153.324,269.800 148.589 C 265.010 147.308,262.778 147.114,249.834 146.859 L 236.667 146.600 236.004 145.400 C 235.639 144.740,234.728 143.030,233.978 141.600 C 223.510 121.625,203.151 104.813,182.600 99.174 C 181.940 98.993,180.680 98.643,179.800 98.396 C 169.046 95.377,155.678 94.374,145.400 95.815 M164.800 119.386 C 172.914 120.584,177.235 121.858,183.912 125.019 C 209.376 137.076,224.426 165.441,219.769 192.600 C 218.487 200.076,218.280 199.297,221.795 200.221 C 223.008 200.539,225.035 201.082,226.300 201.426 C 227.565 201.771,230.220 202.477,232.200 202.997 C 234.180 203.516,236.873 204.224,238.185 204.571 C 241.585 205.469,241.453 205.662,242.963 197.600 C 244.414 189.853,244.699 180.680,243.744 172.500 L 243.498 170.400 250.849 170.400 C 266.483 170.400,277.817 175.765,282.962 185.600 C 286.645 192.639,287.584 196.021,287.594 202.274 C 287.618 217.966,277.425 230.539,262.000 233.843 C 258.736 234.542,60.939 234.685,58.200 233.989 C 53.221 232.726,52.573 232.494,49.000 230.691 C 44.420 228.380,39.783 224.181,37.311 220.107 C 36.700 219.099,35.728 217.802,35.151 217.224 C 30.046 212.114,28.889 199.591,32.581 189.413 C 41.088 165.960,74.902 161.535,88.834 182.051 C 90.792 184.933,89.366 185.287,99.758 179.341 C 111.483 172.632,110.942 173.034,110.196 171.592 C 108.456 168.228,102.900 161.416,99.500 158.479 C 98.044 157.221,98.101 156.662,100.067 152.949 C 112.518 129.425,139.177 115.603,164.800 119.386 " stroke="none" fill="#999999" fill-rule="evenodd"></path><path id="path1" d="M247.000 65.557 L 245.400 65.800 245.297 89.700 L 245.194 113.600 255.597 113.600 L 266.000 113.600 266.000 89.656 L 266.000 65.711 263.900 65.459 C 261.334 65.151,249.209 65.221,247.000 65.557 M312.748 83.284 C 311.347 85.711,309.701 88.530,309.091 89.549 C 308.481 90.567,307.864 91.670,307.720 92.000 C 307.576 92.330,307.355 92.690,307.229 92.800 C 306.977 93.020,305.274 96.081,304.617 97.497 C 304.387 97.990,304.065 98.395,303.900 98.397 C 303.735 98.399,303.600 98.570,303.600 98.777 C 303.600 98.984,302.047 101.819,300.149 105.077 C 295.587 112.909,294.372 115.018,292.762 117.900 C 292.302 118.725,291.773 119.559,291.588 119.754 C 291.162 120.203,291.777 120.781,293.800 121.830 C 295.869 122.904,297.348 123.748,297.600 124.000 C 297.800 124.200,300.610 125.731,302.297 126.560 C 302.790 126.802,303.195 127.135,303.197 127.300 C 303.199 127.465,303.370 127.600,303.579 127.600 C 303.787 127.600,305.032 128.230,306.346 129.000 C 309.073 130.598,309.416 130.669,309.742 129.700 C 309.872 129.315,310.302 128.460,310.699 127.800 C 311.095 127.140,312.201 125.250,313.157 123.600 C 314.112 121.950,315.773 119.113,316.847 117.294 C 317.921 115.476,318.800 113.889,318.800 113.767 C 318.800 113.644,319.340 112.759,320.000 111.800 C 320.660 110.841,321.200 109.961,321.200 109.846 C 321.200 109.730,321.766 108.682,322.459 107.518 C 323.151 106.353,324.258 104.410,324.920 103.200 C 325.581 101.990,326.455 100.522,326.861 99.938 C 327.267 99.354,327.600 98.797,327.600 98.701 C 327.600 98.604,328.769 96.562,330.198 94.162 C 332.659 90.030,333.186 88.801,332.500 88.799 C 332.335 88.799,331.570 88.259,330.800 87.600 C 330.030 86.941,329.281 86.401,329.135 86.401 C 328.989 86.400,327.909 85.762,326.735 84.982 C 325.561 84.202,322.507 82.508,319.948 81.217 L 315.296 78.870 312.748 83.284 M367.000 126.372 C 366.340 126.765,365.170 127.449,364.400 127.891 C 363.630 128.334,359.702 130.609,355.671 132.948 C 351.640 135.287,348.175 137.200,347.971 137.200 C 347.767 137.200,347.599 137.335,347.597 137.500 C 347.595 137.665,347.190 137.998,346.697 138.240 C 345.010 139.069,342.200 140.600,342.000 140.800 C 341.890 140.910,341.370 141.242,340.845 141.538 C 338.784 142.698,337.143 143.633,335.900 144.355 C 335.185 144.770,333.115 145.959,331.300 146.998 C 328.118 148.818,327.441 149.653,328.362 150.620 C 328.562 150.829,329.079 151.630,329.513 152.400 C 329.947 153.170,331.854 156.478,333.751 159.751 C 335.648 163.024,337.200 165.840,337.200 166.008 C 337.200 166.974,338.771 166.469,342.454 164.318 C 346.646 161.871,348.060 161.051,350.600 159.600 C 354.065 157.620,354.724 157.238,356.718 156.056 C 357.882 155.365,358.899 154.800,358.977 154.800 C 359.055 154.800,360.305 154.079,361.756 153.197 C 363.207 152.316,366.780 150.223,369.697 148.547 C 374.839 145.592,377.610 143.973,378.754 143.256 C 379.358 142.876,374.551 132.630,372.982 130.954 C 372.753 130.708,371.861 129.403,371.002 128.054 C 369.335 125.438,368.885 125.249,367.000 126.372 M343.600 202.400 L 343.600 212.800 368.000 212.800 L 392.400 212.800 392.400 202.400 L 392.400 192.000 368.000 192.000 L 343.600 192.000 343.600 202.400 M337.364 239.073 C 336.985 239.693,336.253 240.871,335.738 241.691 C 335.222 242.512,334.800 243.262,334.800 243.358 C 334.800 243.455,333.964 244.944,332.942 246.667 C 331.149 249.692,330.513 250.788,328.800 253.812 C 327.816 255.549,327.791 256.238,328.700 256.536 C 329.085 256.662,330.210 257.248,331.200 257.839 C 332.190 258.430,333.540 259.225,334.200 259.606 C 334.860 259.988,339.360 262.597,344.200 265.405 C 349.040 268.213,353.990 271.055,355.200 271.721 C 356.410 272.387,357.490 273.046,357.600 273.187 C 357.710 273.327,358.430 273.752,359.200 274.132 C 360.656 274.849,361.122 275.114,365.870 277.910 C 367.448 278.839,368.834 279.600,368.950 279.600 C 369.228 279.600,372.489 274.999,373.557 273.100 C 374.021 272.275,374.793 270.925,375.273 270.100 C 376.484 268.021,379.200 262.469,379.200 262.074 C 379.200 261.895,378.615 261.449,377.900 261.083 C 377.185 260.718,375.790 259.939,374.800 259.353 C 373.810 258.766,372.415 257.952,371.700 257.543 C 370.985 257.135,369.770 256.440,369.000 256.000 C 368.230 255.560,366.970 254.840,366.200 254.400 C 363.549 252.885,362.178 252.091,354.800 247.800 C 345.766 242.545,343.731 241.372,340.500 239.557 C 339.675 239.094,338.787 238.542,338.527 238.331 C 338.197 238.063,337.844 238.288,337.364 239.073 M307.600 275.153 C 307.600 275.348,307.285 275.610,306.900 275.736 C 306.515 275.862,305.390 276.448,304.400 277.039 C 302.573 278.129,300.451 279.361,299.000 280.173 C 292.981 283.543,290.519 285.200,291.530 285.200 C 291.737 285.200,292.013 285.515,292.142 285.900 C 292.370 286.575,292.827 287.394,294.651 290.400 C 295.119 291.170,295.950 292.610,296.500 293.600 C 297.049 294.590,299.078 298.100,301.008 301.400 C 302.939 304.700,304.897 308.120,305.359 309.000 C 305.822 309.880,306.290 310.690,306.400 310.800 C 306.510 310.910,306.842 311.430,307.138 311.955 C 308.385 314.169,309.754 316.575,311.545 319.700 C 313.613 323.305,315.253 326.000,315.381 326.000 C 315.515 326.000,316.543 325.511,320.300 323.662 C 321.125 323.255,322.520 322.507,323.400 321.999 C 324.280 321.491,325.360 320.876,325.800 320.633 C 327.559 319.662,332.800 315.958,332.797 315.688 C 332.794 315.439,331.784 313.623,328.353 307.700 C 327.939 306.985,327.240 305.770,326.800 305.000 C 326.360 304.230,325.640 302.970,325.200 302.200 C 324.760 301.430,324.040 300.170,323.600 299.400 C 323.160 298.630,322.421 297.325,321.957 296.500 C 321.494 295.675,320.980 294.820,320.815 294.600 C 320.650 294.380,319.975 293.210,319.314 292.000 C 318.654 290.790,316.894 287.730,315.403 285.200 C 312.805 280.791,312.142 279.640,310.286 276.300 C 309.515 274.911,307.600 274.094,307.600 275.153 M245.200 314.800 L 245.200 339.200 255.600 339.200 L 266.000 339.200 266.000 314.800 L 266.000 290.400 255.600 290.400 L 245.200 290.400 245.200 314.800 " stroke="none" fill="#ffbb00" fill-rule="evenodd"></path>
            </g>
        </g>
    </symbol>

    <symbol xmlns="http://www.w3.org/2000/svg" viewBox="0, 0, 400,401.1799410029499" id="weather-sunny">
        <g stroke="none" stroke-width="1" fill="none" fill-rule="evenodd">
            <g transform="translate(1.000000, 0.000000)" fill="currentColor" fill-rule="nonzero">
                <path id="path0" d="M186.000 5.756 L 183.400 6.225 183.298 40.713 L 183.196 75.200 198.198 75.200 L 213.200 75.200 213.200 40.640 L 213.200 6.081 211.300 5.816 C 207.660 5.310,188.719 5.265,186.000 5.756 M109.600 26.418 C 108.390 27.038,106.590 27.930,105.600 28.398 C 104.610 28.867,103.260 29.570,102.600 29.960 C 98.487 32.390,97.701 32.832,96.808 33.220 C 96.263 33.456,95.723 33.783,95.608 33.946 C 95.494 34.109,94.680 34.673,93.800 35.200 C 92.920 35.727,92.110 36.257,92.000 36.379 C 91.890 36.500,90.855 37.230,89.701 38.000 C 87.240 39.641,87.142 40.168,88.800 42.862 C 89.460 43.934,90.000 44.967,90.000 45.157 C 90.000 45.347,90.270 45.726,90.600 46.000 C 90.930 46.274,91.200 46.821,91.200 47.216 C 91.200 47.610,91.342 47.993,91.516 48.067 C 91.863 48.213,94.247 52.018,94.831 53.358 C 95.033 53.821,95.374 54.470,95.590 54.800 C 97.064 57.057,99.600 61.579,99.600 61.951 C 99.600 62.198,99.777 62.400,99.992 62.400 C 100.208 62.400,100.498 62.850,100.636 63.400 C 100.774 63.950,101.047 64.400,101.243 64.400 C 101.440 64.400,101.600 64.578,101.600 64.795 C 101.600 65.133,105.611 72.222,106.808 74.000 C 107.030 74.330,107.407 75.095,107.645 75.700 C 107.883 76.305,108.241 76.800,108.439 76.800 C 108.638 76.800,108.800 77.057,108.800 77.371 C 108.800 77.686,109.025 78.181,109.300 78.471 C 109.575 78.762,110.215 79.810,110.722 80.800 C 111.229 81.790,111.985 83.140,112.403 83.800 C 113.660 85.788,114.153 86.647,115.200 88.668 C 115.749 89.731,116.323 90.694,116.475 90.808 C 116.626 90.923,116.944 91.463,117.182 92.008 C 117.419 92.554,118.157 93.900,118.820 95.000 C 119.484 96.100,120.230 97.405,120.478 97.900 C 120.968 98.878,122.700 99.140,123.486 98.354 C 123.978 97.862,124.803 97.374,127.800 95.802 C 128.900 95.226,130.340 94.416,131.000 94.004 C 132.193 93.259,133.743 92.379,136.382 90.949 C 137.142 90.537,138.010 89.975,138.310 89.700 C 138.611 89.425,139.114 89.200,139.429 89.200 C 139.743 89.200,140.000 89.032,140.000 88.827 C 140.000 88.622,140.405 88.328,140.900 88.173 C 141.395 88.019,141.890 87.781,142.000 87.646 C 142.110 87.511,143.068 86.950,144.129 86.400 C 146.968 84.928,147.038 84.751,145.738 82.317 C 145.115 81.153,144.511 80.110,144.395 80.000 C 144.279 79.890,143.964 79.350,143.695 78.800 C 143.426 78.250,143.030 77.530,142.814 77.200 C 141.472 75.144,139.260 71.218,139.024 70.477 C 138.871 69.995,138.590 69.600,138.400 69.600 C 138.210 69.600,137.929 69.205,137.776 68.723 C 137.623 68.241,136.800 66.708,135.949 65.316 C 135.097 63.925,134.400 62.708,134.400 62.613 C 134.400 62.518,133.860 61.640,133.200 60.662 C 132.540 59.684,132.000 58.707,132.000 58.491 C 132.000 58.275,131.730 57.874,131.400 57.600 C 131.070 57.326,130.800 56.783,130.800 56.394 C 130.800 56.004,130.530 55.582,130.200 55.455 C 129.870 55.329,129.600 54.958,129.600 54.633 C 129.600 54.307,129.079 53.266,128.443 52.320 C 127.806 51.374,126.887 49.834,126.401 48.898 C 125.915 47.962,125.356 47.096,125.159 46.974 C 124.961 46.853,124.800 46.418,124.800 46.010 C 124.800 45.601,124.658 45.207,124.484 45.133 C 124.137 44.987,121.753 41.182,121.169 39.842 C 120.967 39.379,120.626 38.730,120.410 38.400 C 118.936 36.143,116.400 31.621,116.400 31.249 C 116.400 31.002,116.232 30.800,116.027 30.800 C 115.822 30.800,115.535 30.425,115.389 29.966 C 114.939 28.547,112.705 25.198,112.240 25.245 C 111.998 25.269,110.810 25.797,109.600 26.418 M283.278 26.100 C 283.030 26.595,282.284 27.900,281.620 29.000 C 280.957 30.100,280.223 31.360,279.990 31.800 C 279.756 32.240,279.348 32.960,279.083 33.400 C 278.817 33.840,277.982 35.280,277.226 36.600 C 276.471 37.920,275.751 39.090,275.626 39.200 C 275.502 39.310,274.863 40.457,274.208 41.749 C 273.552 43.042,272.472 44.932,271.808 45.949 C 271.143 46.967,270.240 48.563,269.800 49.495 C 269.360 50.428,268.865 51.193,268.700 51.195 C 268.535 51.198,268.400 51.429,268.400 51.709 C 268.400 51.989,267.802 53.127,267.070 54.237 C 266.339 55.347,265.625 56.513,265.483 56.828 C 265.342 57.143,264.683 58.300,264.020 59.400 C 263.356 60.500,262.619 61.846,262.382 62.392 C 262.144 62.937,261.826 63.477,261.675 63.592 C 261.524 63.706,260.954 64.655,260.408 65.700 C 259.863 66.745,259.278 67.600,259.108 67.600 C 258.939 67.600,258.800 67.949,258.800 68.376 C 258.800 68.803,258.609 69.271,258.375 69.415 C 258.142 69.560,257.779 70.065,257.569 70.539 C 257.360 71.012,256.841 71.940,256.417 72.600 C 255.993 73.260,255.148 74.745,254.539 75.900 C 253.931 77.055,253.290 78.000,253.116 78.000 C 252.942 78.000,252.800 78.349,252.800 78.776 C 252.800 79.203,252.609 79.671,252.375 79.815 C 252.142 79.960,251.780 80.465,251.570 80.939 C 251.361 81.412,250.830 82.396,250.390 83.124 C 249.509 84.580,249.783 85.223,251.519 85.774 C 252.003 85.928,252.400 86.210,252.400 86.400 C 252.400 86.590,252.795 86.871,253.277 87.024 C 253.759 87.177,255.255 87.976,256.600 88.800 C 257.945 89.624,259.441 90.423,259.923 90.576 C 260.405 90.729,260.800 90.997,260.800 91.172 C 260.800 91.347,261.700 91.917,262.800 92.439 C 263.900 92.962,264.800 93.526,264.800 93.694 C 264.800 93.862,265.057 94.000,265.371 94.000 C 265.686 94.000,266.181 94.225,266.471 94.500 C 266.762 94.775,267.870 95.450,268.934 96.000 C 271.703 97.432,272.410 97.850,272.914 98.354 C 273.624 99.064,275.589 98.897,275.889 98.100 C 276.117 97.496,280.887 89.312,282.009 87.600 C 282.225 87.270,282.593 86.554,282.826 86.008 C 283.059 85.463,283.374 84.923,283.525 84.808 C 283.677 84.694,284.215 83.790,284.722 82.800 C 285.229 81.810,285.991 80.460,286.416 79.800 C 286.841 79.140,287.372 78.240,287.597 77.800 C 287.821 77.360,288.636 75.920,289.408 74.600 C 290.179 73.280,290.991 71.840,291.211 71.400 C 291.431 70.960,291.967 70.060,292.400 69.400 C 292.833 68.740,293.379 67.840,293.611 67.400 C 293.844 66.960,294.254 66.240,294.522 65.800 C 294.791 65.360,295.728 63.741,296.605 62.202 C 297.482 60.664,298.418 59.044,298.684 58.602 C 298.951 58.161,299.300 57.530,299.461 57.200 C 299.622 56.870,300.799 54.866,302.077 52.746 C 303.355 50.626,304.400 48.691,304.400 48.446 C 304.400 48.201,304.560 48.000,304.757 48.000 C 304.953 48.000,305.226 47.550,305.364 47.000 C 305.502 46.450,305.792 46.000,306.008 46.000 C 306.223 46.000,306.400 45.795,306.400 45.544 C 306.400 45.294,306.940 44.211,307.600 43.138 C 309.540 39.985,309.162 39.135,304.600 36.401 C 303.720 35.874,302.910 35.343,302.800 35.221 C 302.494 34.883,301.133 34.050,299.800 33.386 C 298.489 32.733,297.115 31.915,296.800 31.600 C 296.493 31.294,294.203 30.088,289.800 27.914 C 287.600 26.828,285.487 25.773,285.105 25.570 C 284.074 25.021,283.775 25.107,283.278 26.100 M33.193 94.472 C 32.207 95.853,30.962 97.707,30.428 98.592 C 29.893 99.476,29.308 100.260,29.128 100.333 C 28.947 100.407,28.800 100.652,28.800 100.879 C 28.800 101.106,27.720 103.079,26.400 105.264 C 25.080 107.449,24.000 109.463,24.000 109.739 C 24.000 110.014,23.795 110.445,23.544 110.696 C 23.191 111.049,20.400 117.019,20.400 117.420 C 20.400 117.468,20.715 117.612,21.100 117.742 C 21.485 117.871,22.153 118.207,22.585 118.488 C 24.483 119.726,26.734 121.045,28.400 121.898 C 30.229 122.833,30.568 123.030,33.400 124.800 C 34.280 125.350,35.720 126.160,36.600 126.600 C 37.480 127.040,38.260 127.535,38.333 127.700 C 38.407 127.865,38.709 128.000,39.005 128.000 C 39.301 128.000,39.781 128.227,40.071 128.505 C 40.362 128.782,41.050 129.239,41.600 129.521 C 42.150 129.802,42.960 130.250,43.400 130.516 C 44.126 130.956,47.812 133.113,49.800 134.263 C 50.240 134.517,51.371 135.121,52.314 135.605 C 53.256 136.089,54.246 136.691,54.514 136.942 C 54.781 137.194,55.810 137.815,56.800 138.322 C 57.790 138.829,59.140 139.591,59.800 140.016 C 60.460 140.441,61.360 140.953,61.800 141.154 C 62.240 141.355,63.230 141.943,64.000 142.460 C 64.770 142.977,66.210 143.812,67.200 144.315 C 68.190 144.818,69.353 145.448,69.785 145.715 C 73.266 147.866,74.918 148.814,77.800 150.313 C 78.460 150.656,79.121 151.120,79.270 151.343 C 79.604 151.846,80.736 150.969,81.241 149.816 C 81.437 149.367,81.779 148.685,81.999 148.300 C 82.220 147.915,82.581 147.285,82.803 146.900 C 83.024 146.515,83.326 145.930,83.473 145.600 C 83.621 145.270,84.201 144.280,84.763 143.400 C 86.263 141.049,86.720 140.290,87.172 139.400 C 87.395 138.960,88.122 137.700,88.789 136.600 C 89.455 135.500,90.275 134.060,90.612 133.400 C 90.948 132.740,91.601 131.570,92.062 130.800 C 94.578 126.600,94.835 125.738,93.700 125.312 C 93.315 125.167,91.717 124.273,90.149 123.324 C 88.581 122.376,87.096 121.600,86.849 121.600 C 86.602 121.600,86.400 121.432,86.400 121.227 C 86.400 121.022,86.011 120.731,85.536 120.580 C 84.814 120.351,78.853 116.943,76.800 115.585 C 76.470 115.367,75.705 114.993,75.100 114.755 C 74.495 114.517,74.000 114.179,74.000 114.004 C 74.000 113.830,73.550 113.574,73.000 113.436 C 72.450 113.298,72.000 113.008,72.000 112.792 C 72.000 112.577,71.651 112.400,71.224 112.400 C 70.797 112.400,70.329 112.209,70.185 111.975 C 70.040 111.742,69.535 111.379,69.061 111.169 C 68.588 110.960,67.660 110.433,67.000 110.000 C 66.340 109.567,65.354 109.018,64.808 108.781 C 64.263 108.544,63.723 108.226,63.608 108.075 C 63.494 107.923,62.590 107.385,61.600 106.878 C 60.610 106.371,59.260 105.609,58.600 105.184 C 57.940 104.759,57.040 104.227,56.600 104.001 C 55.148 103.254,52.227 101.510,50.480 100.346 C 49.534 99.716,48.521 99.200,48.229 99.200 C 47.937 99.200,47.474 98.930,47.200 98.600 C 46.926 98.270,46.547 98.000,46.358 98.000 C 46.169 98.000,44.875 97.303,43.484 96.451 C 42.092 95.600,40.559 94.777,40.077 94.624 C 39.595 94.471,39.200 94.178,39.200 93.973 C 39.200 93.768,38.943 93.600,38.629 93.600 C 38.314 93.600,37.796 93.339,37.477 93.020 C 35.979 91.522,35.081 91.826,33.193 94.472 M358.400 93.400 C 357.190 94.160,355.975 94.786,355.700 94.791 C 355.425 94.796,355.200 94.968,355.200 95.173 C 355.200 95.378,354.805 95.671,354.323 95.824 C 353.841 95.977,352.308 96.800,350.916 97.651 C 349.525 98.503,348.308 99.200,348.213 99.200 C 348.118 99.200,347.240 99.740,346.262 100.400 C 345.284 101.060,344.307 101.600,344.091 101.600 C 343.875 101.600,343.474 101.870,343.200 102.200 C 342.926 102.530,342.364 102.800,341.951 102.800 C 341.538 102.800,341.200 102.968,341.200 103.173 C 341.200 103.378,340.823 103.666,340.362 103.812 C 339.902 103.958,338.751 104.600,337.804 105.239 C 336.858 105.877,335.907 106.400,335.691 106.400 C 335.475 106.400,335.074 106.670,334.800 107.000 C 334.526 107.330,333.964 107.600,333.551 107.600 C 333.138 107.600,332.800 107.777,332.800 107.992 C 332.800 108.208,332.350 108.498,331.800 108.636 C 331.250 108.774,330.800 109.010,330.800 109.160 C 330.800 109.310,329.855 109.928,328.700 110.532 C 327.545 111.137,326.330 111.801,326.000 112.007 C 322.938 113.920,319.213 116.000,318.849 116.000 C 318.602 116.000,318.400 116.180,318.400 116.400 C 318.400 116.620,318.158 116.800,317.861 116.800 C 317.565 116.800,316.907 117.160,316.400 117.600 C 315.893 118.040,315.328 118.400,315.146 118.400 C 314.855 118.400,310.453 120.916,308.800 122.026 C 308.470 122.248,307.705 122.642,307.100 122.902 C 306.495 123.162,306.000 123.476,306.000 123.598 C 306.000 123.721,305.192 124.176,304.204 124.610 C 302.385 125.410,301.601 127.459,302.825 128.215 C 303.058 128.360,303.426 128.865,303.642 129.339 C 304.250 130.673,305.063 132.023,305.554 132.514 C 305.799 132.759,306.000 133.284,306.000 133.680 C 306.000 134.076,306.177 134.400,306.392 134.400 C 306.608 134.400,306.898 134.850,307.036 135.400 C 307.174 135.950,307.435 136.400,307.616 136.400 C 307.798 136.400,308.072 136.797,308.226 137.281 C 308.380 137.766,308.752 138.409,309.053 138.710 C 309.354 139.011,309.600 139.514,309.600 139.829 C 309.600 140.143,309.768 140.400,309.973 140.400 C 310.178 140.400,310.471 140.795,310.624 141.277 C 310.860 142.018,313.072 145.944,314.414 148.000 C 314.630 148.330,315.027 149.050,315.298 149.600 C 316.338 151.712,316.565 151.735,319.387 150.008 C 320.832 149.124,322.132 148.400,322.276 148.400 C 322.419 148.400,322.821 148.150,323.169 147.845 C 323.516 147.540,324.880 146.704,326.200 145.986 C 330.646 143.570,330.997 143.372,332.000 142.717 C 333.315 141.860,337.085 139.718,338.600 138.968 C 339.260 138.642,340.340 138.022,341.000 137.592 C 341.660 137.161,342.470 136.683,342.800 136.529 C 343.403 136.247,350.079 132.322,351.200 131.590 C 351.530 131.374,352.177 131.033,352.639 130.832 C 353.100 130.631,354.630 129.765,356.039 128.907 C 357.447 128.050,358.870 127.223,359.200 127.070 C 359.530 126.916,360.340 126.437,361.000 126.005 C 361.660 125.572,362.956 124.839,363.880 124.375 C 364.803 123.911,365.770 123.277,366.029 122.966 C 366.287 122.654,366.814 122.400,367.200 122.400 C 367.586 122.400,368.126 122.130,368.400 121.800 C 368.674 121.470,369.047 121.200,369.229 121.200 C 369.411 121.200,370.334 120.696,371.280 120.080 C 372.226 119.465,373.675 118.614,374.500 118.189 C 375.325 117.765,376.000 117.265,376.000 117.078 C 376.000 116.550,371.039 106.617,370.700 106.467 C 370.535 106.393,370.400 106.148,370.400 105.922 C 370.400 105.390,366.348 98.642,365.923 98.467 C 365.745 98.393,365.600 98.176,365.600 97.984 C 365.600 97.163,361.668 91.997,361.053 92.009 C 360.804 92.014,359.610 92.640,358.400 93.400 M188.795 96.367 C 188.242 96.539,186.303 96.810,184.486 96.968 C 182.669 97.127,180.691 97.513,180.091 97.826 C 179.491 98.139,177.886 98.396,176.524 98.398 C 175.162 98.399,173.936 98.580,173.800 98.800 C 173.664 99.020,172.883 99.200,172.065 99.200 C 171.247 99.200,170.223 99.444,169.789 99.743 C 169.355 100.042,168.280 100.414,167.400 100.570 C 165.490 100.909,162.800 102.024,162.800 102.477 C 162.800 102.655,162.114 102.800,161.276 102.800 C 160.439 102.800,159.404 103.064,158.976 103.387 C 158.549 103.710,157.789 103.980,157.287 103.987 C 156.786 103.994,156.271 104.270,156.145 104.600 C 156.018 104.930,155.506 105.200,155.006 105.200 C 154.507 105.200,153.874 105.470,153.600 105.800 C 153.326 106.130,152.798 106.400,152.427 106.400 C 152.056 106.400,151.404 106.664,150.976 106.987 C 150.549 107.310,149.930 107.581,149.600 107.588 C 149.270 107.596,147.768 108.411,146.263 109.401 C 144.757 110.390,143.182 111.200,142.763 111.200 C 142.343 111.200,142.000 111.386,142.000 111.613 C 142.000 111.839,141.685 112.140,141.300 112.280 C 140.915 112.420,140.035 113.000,139.344 113.567 C 138.652 114.135,137.489 115.095,136.757 115.700 C 136.026 116.305,135.216 116.800,134.958 116.800 C 134.700 116.800,133.793 117.426,132.944 118.191 C 132.095 118.956,131.195 119.586,130.943 119.591 C 130.692 119.596,130.374 120.047,130.237 120.594 C 130.083 121.207,129.607 121.683,128.994 121.837 C 128.447 121.974,128.000 122.247,128.000 122.443 C 128.000 122.640,127.801 122.800,127.557 122.800 C 127.313 122.800,126.139 123.790,124.948 125.000 C 123.757 126.210,122.607 127.200,122.392 127.200 C 122.176 127.200,122.000 127.389,122.000 127.620 C 122.000 127.851,120.934 129.103,119.630 130.402 C 118.327 131.701,117.202 133.177,117.130 133.682 C 117.045 134.286,116.684 134.645,116.078 134.731 C 115.572 134.802,115.007 135.252,114.823 135.731 C 114.639 136.209,114.019 137.104,113.444 137.721 C 112.870 138.337,112.400 139.072,112.400 139.354 C 112.400 139.636,111.865 140.392,111.211 141.033 C 110.557 141.675,110.017 142.370,110.011 142.578 C 110.005 142.786,109.567 143.416,109.037 143.978 C 108.508 144.540,107.403 146.260,106.581 147.800 C 105.759 149.340,104.977 150.690,104.843 150.800 C 104.457 151.118,103.634 152.511,103.191 153.600 C 102.967 154.150,102.588 155.050,102.350 155.600 C 102.111 156.150,101.645 157.230,101.314 158.000 C 100.983 158.770,100.551 159.670,100.353 160.000 C 100.156 160.330,99.897 160.870,99.777 161.200 C 99.657 161.530,99.298 162.310,98.980 162.932 C 98.661 163.555,98.400 164.670,98.400 165.409 C 98.400 166.148,98.236 166.854,98.035 166.979 C 97.418 167.360,96.000 170.595,95.998 171.626 C 95.996 172.162,95.726 173.116,95.398 173.746 C 95.069 174.376,94.800 175.466,94.800 176.169 C 94.800 176.872,94.536 177.796,94.213 178.224 C 93.827 178.733,93.621 179.981,93.613 181.851 C 93.604 183.885,93.428 184.845,93.000 185.200 C 92.570 185.557,92.399 186.507,92.395 188.549 C 92.393 190.117,92.125 192.390,91.800 193.600 C 91.386 195.144,91.209 197.888,91.209 202.800 C 91.209 207.712,91.386 210.456,91.800 212.000 C 92.125 213.210,92.393 215.483,92.395 217.051 C 92.399 219.093,92.570 220.043,93.000 220.400 C 93.428 220.755,93.604 221.715,93.613 223.749 C 93.621 225.619,93.827 226.867,94.213 227.376 C 94.536 227.804,94.800 228.728,94.800 229.431 C 94.800 230.134,95.069 231.224,95.398 231.854 C 95.726 232.484,95.996 233.480,95.998 234.068 C 96.000 235.138,96.963 237.286,97.900 238.310 C 98.175 238.611,98.400 239.460,98.400 240.196 C 98.400 241.369,98.856 242.627,100.070 244.800 C 100.254 245.130,100.511 245.670,100.641 246.000 C 100.858 246.552,101.158 247.254,102.350 250.000 C 102.588 250.550,102.967 251.450,103.191 252.000 C 103.634 253.089,104.457 254.482,104.843 254.800 C 104.977 254.910,105.759 256.260,106.581 257.800 C 107.403 259.340,108.508 261.060,109.037 261.622 C 109.567 262.184,110.005 262.814,110.011 263.022 C 110.017 263.230,110.557 263.925,111.211 264.567 C 111.865 265.208,112.400 265.979,112.400 266.280 C 112.400 266.581,112.922 267.338,113.561 267.962 C 114.199 268.586,114.785 269.427,114.863 269.831 C 114.941 270.234,115.453 270.670,116.002 270.799 C 116.626 270.945,117.047 271.359,117.126 271.903 C 117.195 272.382,118.320 273.848,119.626 275.162 C 120.932 276.476,122.000 277.742,122.000 277.975 C 122.000 278.209,122.176 278.400,122.392 278.400 C 122.607 278.400,123.757 279.390,124.948 280.600 C 126.139 281.810,127.313 282.800,127.557 282.800 C 127.801 282.800,128.000 282.960,128.000 283.157 C 128.000 283.353,128.447 283.626,128.994 283.763 C 129.607 283.917,130.083 284.393,130.237 285.006 C 130.374 285.553,130.692 286.001,130.943 286.002 C 131.195 286.003,131.940 286.500,132.600 287.106 C 133.260 287.713,134.255 288.410,134.811 288.655 C 135.367 288.901,136.267 289.474,136.811 289.929 C 137.355 290.383,138.454 291.306,139.253 291.978 C 140.052 292.650,140.885 293.200,141.104 293.200 C 141.323 293.200,141.726 293.470,142.000 293.800 C 142.274 294.130,142.729 294.400,143.012 294.400 C 143.294 294.400,144.757 295.210,146.263 296.199 C 147.768 297.189,149.270 298.004,149.600 298.012 C 149.930 298.019,150.549 298.290,150.976 298.613 C 151.404 298.936,152.056 299.200,152.427 299.200 C 152.798 299.200,153.326 299.470,153.600 299.800 C 153.874 300.130,154.507 300.400,155.006 300.400 C 155.506 300.400,156.018 300.670,156.145 301.000 C 156.271 301.330,156.786 301.606,157.287 301.613 C 157.789 301.620,158.549 301.890,158.976 302.213 C 159.404 302.536,160.428 302.800,161.253 302.800 C 162.078 302.800,162.857 302.969,162.984 303.175 C 163.381 303.816,165.679 304.804,167.377 305.062 C 168.269 305.198,169.180 305.442,169.400 305.604 C 169.620 305.766,170.651 306.022,171.691 306.173 C 172.731 306.323,173.686 306.616,173.814 306.823 C 173.942 307.030,175.134 307.200,176.463 307.200 C 177.792 307.200,179.446 307.461,180.140 307.779 C 184.754 309.900,211.604 309.896,216.260 307.774 C 216.954 307.459,218.608 307.200,219.937 307.200 C 221.266 307.200,222.454 307.036,222.578 306.835 C 222.703 306.634,223.568 306.349,224.502 306.203 C 225.436 306.056,226.740 305.776,227.400 305.581 C 228.060 305.386,229.633 304.926,230.895 304.560 C 232.158 304.193,233.395 303.647,233.644 303.347 C 233.894 303.046,234.672 302.800,235.373 302.800 C 236.074 302.800,236.996 302.536,237.424 302.213 C 237.851 301.890,238.583 301.620,239.051 301.613 C 239.519 301.606,240.126 301.330,240.400 301.000 C 240.674 300.670,241.307 300.400,241.806 300.400 C 242.306 300.400,242.818 300.130,242.945 299.800 C 243.071 299.470,243.609 299.200,244.138 299.200 C 244.668 299.200,245.326 298.930,245.600 298.600 C 245.874 298.270,246.504 298.000,247.000 298.000 C 247.496 298.000,248.126 297.730,248.400 297.400 C 248.674 297.070,249.057 296.800,249.252 296.800 C 249.447 296.800,250.352 296.260,251.263 295.600 C 252.175 294.940,253.234 294.400,253.617 294.400 C 254.001 294.400,254.418 294.130,254.545 293.800 C 254.671 293.470,255.029 293.200,255.338 293.200 C 255.648 293.200,256.146 292.906,256.445 292.546 C 256.744 292.186,257.621 291.487,258.394 290.993 C 259.167 290.499,260.233 289.713,260.761 289.247 C 261.290 288.781,261.965 288.400,262.261 288.400 C 262.558 288.400,262.800 288.256,262.800 288.080 C 262.800 287.904,263.610 287.248,264.600 286.622 C 265.612 285.982,266.400 285.178,266.400 284.785 C 266.400 284.371,266.813 283.983,267.414 283.832 C 269.239 283.374,278.543 274.057,279.277 271.952 C 279.569 271.114,279.940 270.800,280.639 270.800 C 281.300 270.800,281.600 270.574,281.600 270.075 C 281.600 269.676,282.140 268.832,282.800 268.200 C 283.460 267.568,284.000 266.842,284.000 266.586 C 284.000 266.331,284.381 265.690,284.847 265.161 C 285.313 264.633,286.125 263.525,286.652 262.700 C 287.179 261.875,287.766 261.200,287.956 261.200 C 288.147 261.200,288.527 260.660,288.800 260.000 C 289.073 259.340,289.455 258.800,289.649 258.800 C 289.842 258.800,290.000 258.350,290.000 257.800 C 290.000 257.250,290.135 256.799,290.300 256.797 C 290.898 256.792,294.799 249.462,294.800 248.343 C 294.800 247.981,295.070 247.582,295.400 247.455 C 295.730 247.329,296.000 246.791,296.000 246.262 C 296.000 245.732,296.270 245.074,296.600 244.800 C 296.930 244.526,297.206 243.919,297.213 243.451 C 297.220 242.983,297.490 242.251,297.813 241.824 C 298.136 241.396,298.400 240.361,298.400 239.524 C 298.400 238.686,298.567 238.000,298.771 238.000 C 299.317 238.000,300.400 235.638,300.402 234.439 C 300.404 233.867,300.674 232.884,301.002 232.254 C 301.331 231.624,301.600 230.661,301.600 230.115 C 301.600 229.568,301.855 228.554,302.166 227.860 C 302.477 227.167,302.814 225.275,302.916 223.655 C 303.017 222.035,303.276 220.595,303.491 220.455 C 304.260 219.954,304.935 211.698,304.935 202.800 C 304.935 193.902,304.260 185.646,303.491 185.145 C 303.276 185.005,303.017 183.565,302.916 181.945 C 302.814 180.325,302.477 178.433,302.166 177.740 C 301.855 177.046,301.600 176.032,301.600 175.485 C 301.600 174.939,301.331 173.976,301.002 173.346 C 300.674 172.716,300.404 171.733,300.402 171.161 C 300.400 170.069,299.413 167.779,298.775 167.384 C 298.569 167.257,298.400 166.568,298.400 165.853 C 298.400 165.138,298.136 164.204,297.813 163.776 C 297.490 163.349,297.220 162.617,297.213 162.149 C 297.206 161.681,296.930 161.074,296.600 160.800 C 296.270 160.526,296.000 159.868,296.000 159.338 C 296.000 158.809,295.730 158.271,295.400 158.145 C 295.070 158.018,294.800 157.619,294.800 157.257 C 294.799 156.138,290.898 148.808,290.300 148.803 C 290.135 148.801,290.000 148.350,290.000 147.800 C 290.000 147.250,289.842 146.800,289.649 146.800 C 289.455 146.800,289.073 146.260,288.800 145.600 C 288.527 144.940,288.147 144.400,287.956 144.400 C 287.766 144.400,287.179 143.725,286.652 142.900 C 286.125 142.075,285.313 140.967,284.847 140.439 C 284.381 139.910,284.000 139.269,284.000 139.014 C 284.000 138.758,283.460 138.032,282.800 137.400 C 282.140 136.768,281.600 135.924,281.600 135.525 C 281.600 135.026,281.300 134.800,280.639 134.800 C 279.940 134.800,279.569 134.486,279.277 133.648 C 278.543 131.543,269.239 122.226,267.414 121.768 C 266.782 121.609,266.400 121.232,266.400 120.767 C 266.400 120.356,265.905 119.756,265.300 119.434 C 264.695 119.111,263.677 118.386,263.038 117.823 C 262.399 117.261,261.634 116.800,261.338 116.800 C 261.042 116.800,260.800 116.656,260.800 116.480 C 260.800 116.304,260.000 115.654,259.022 115.036 C 258.044 114.418,256.937 113.572,256.560 113.156 C 256.184 112.740,255.628 112.400,255.325 112.400 C 255.023 112.400,254.671 112.130,254.545 111.800 C 254.418 111.470,254.001 111.200,253.617 111.200 C 253.234 111.200,252.175 110.660,251.263 110.000 C 250.352 109.340,249.447 108.800,249.252 108.800 C 249.057 108.800,248.674 108.530,248.400 108.200 C 248.126 107.870,247.496 107.600,247.000 107.600 C 246.504 107.600,245.874 107.330,245.600 107.000 C 245.326 106.670,244.668 106.400,244.138 106.400 C 243.609 106.400,243.071 106.130,242.945 105.800 C 242.818 105.470,242.306 105.200,241.806 105.200 C 241.307 105.200,240.674 104.930,240.400 104.600 C 240.126 104.270,239.519 103.994,239.051 103.987 C 238.583 103.980,237.851 103.710,237.424 103.387 C 236.996 103.064,236.074 102.800,235.373 102.800 C 234.672 102.800,233.894 102.554,233.644 102.253 C 233.395 101.953,232.158 101.408,230.895 101.043 C 229.633 100.678,228.060 100.179,227.400 99.936 C 226.740 99.692,225.480 99.408,224.600 99.305 C 223.720 99.202,222.829 98.956,222.620 98.759 C 222.411 98.562,221.178 98.400,219.880 98.400 C 218.583 98.400,216.954 98.141,216.260 97.826 C 213.465 96.552,191.883 95.406,188.795 96.367 M1.064 190.698 C 0.925 192.182,0.629 193.457,0.406 193.531 C -0.149 193.716,-0.149 211.884,0.406 212.069 C 0.629 212.143,0.925 213.418,1.064 214.902 L 1.316 217.600 35.858 217.600 L 70.400 217.600 70.400 202.800 L 70.400 188.000 35.858 188.000 L 1.316 188.000 1.064 190.698 M326.000 202.800 L 326.000 217.600 360.539 217.600 L 395.079 217.600 395.540 214.300 C 396.135 210.039,396.135 195.561,395.540 191.300 L 395.079 188.000 360.539 188.000 L 326.000 188.000 326.000 202.800 M79.200 254.312 C 79.200 254.484,78.705 254.835,78.100 255.093 C 76.942 255.586,74.484 256.970,72.800 258.078 C 71.511 258.925,67.744 261.068,66.200 261.832 C 65.540 262.158,64.460 262.777,63.800 263.207 C 63.140 263.637,62.240 264.173,61.800 264.400 C 61.360 264.627,60.460 265.159,59.800 265.584 C 59.140 266.009,57.790 266.771,56.800 267.278 C 55.810 267.785,54.781 268.406,54.514 268.658 C 54.246 268.909,53.256 269.511,52.314 269.995 C 51.371 270.479,50.240 271.083,49.800 271.337 C 47.307 272.779,44.095 274.665,43.400 275.096 C 42.960 275.368,42.105 275.813,41.500 276.083 C 40.895 276.354,40.400 276.716,40.400 276.888 C 40.400 277.059,40.143 277.200,39.829 277.200 C 39.514 277.200,39.017 277.425,38.722 277.700 C 38.428 277.975,37.471 278.551,36.594 278.980 C 35.717 279.409,34.730 279.971,34.400 280.229 C 34.070 280.487,32.720 281.295,31.400 282.026 C 30.080 282.756,28.280 283.766,27.400 284.270 C 26.520 284.774,25.440 285.372,25.000 285.599 C 24.560 285.826,23.660 286.371,23.000 286.811 C 22.340 287.250,21.485 287.718,21.100 287.851 C 20.715 287.984,20.400 288.132,20.400 288.180 C 20.400 288.581,23.191 294.551,23.544 294.904 C 23.795 295.155,24.000 295.586,24.000 295.861 C 24.000 296.137,25.080 298.151,26.400 300.336 C 27.720 302.521,28.800 304.509,28.800 304.754 C 28.800 304.999,28.939 305.200,29.109 305.200 C 29.279 305.200,29.774 305.862,30.209 306.671 C 30.644 307.479,31.181 308.334,31.402 308.571 C 31.623 308.807,32.515 310.045,33.384 311.323 C 35.051 313.772,35.995 314.063,37.477 312.580 C 37.796 312.261,38.314 312.000,38.629 312.000 C 38.943 312.000,39.200 311.832,39.200 311.627 C 39.200 311.422,39.595 311.129,40.077 310.976 C 40.818 310.740,44.744 308.528,46.800 307.186 C 47.130 306.970,47.850 306.574,48.400 306.305 C 48.950 306.036,49.490 305.719,49.600 305.600 C 49.710 305.481,50.250 305.162,50.800 304.890 C 51.350 304.619,52.700 303.859,53.800 303.202 C 54.900 302.544,56.160 301.822,56.600 301.597 C 57.040 301.372,57.940 300.841,58.600 300.416 C 59.260 299.991,60.610 299.229,61.600 298.722 C 62.590 298.215,63.494 297.677,63.608 297.525 C 63.723 297.374,64.263 297.056,64.808 296.819 C 65.354 296.582,66.340 296.033,67.000 295.600 C 67.660 295.167,68.588 294.640,69.061 294.431 C 69.535 294.221,70.040 293.858,70.185 293.625 C 70.329 293.391,70.797 293.200,71.224 293.200 C 71.651 293.200,72.000 293.023,72.000 292.808 C 72.000 292.592,72.450 292.302,73.000 292.164 C 73.550 292.026,74.000 291.770,74.000 291.596 C 74.000 291.421,74.495 291.080,75.100 290.838 C 75.705 290.596,76.740 290.040,77.400 289.603 C 78.060 289.166,78.870 288.684,79.200 288.530 C 79.802 288.251,84.474 285.519,85.600 284.788 C 85.930 284.573,86.646 284.207,87.192 283.974 C 87.737 283.741,88.278 283.426,88.392 283.275 C 88.589 283.015,89.321 282.599,92.938 280.691 C 94.453 279.892,94.843 278.002,93.654 277.220 C 93.311 276.995,91.708 274.349,90.612 272.200 C 90.275 271.540,89.455 270.100,88.789 269.000 C 88.122 267.900,87.395 266.640,87.172 266.200 C 86.948 265.760,86.545 265.040,86.275 264.600 C 84.221 261.254,83.740 260.476,83.297 259.785 C 83.021 259.353,82.706 258.775,82.597 258.500 C 81.969 256.908,81.248 255.621,80.435 254.643 C 79.873 253.965,79.200 253.785,79.200 254.312 M316.197 254.515 C 315.976 254.782,315.572 255.450,315.300 256.000 C 315.028 256.550,314.630 257.270,314.414 257.600 C 313.072 259.656,310.860 263.582,310.624 264.323 C 310.471 264.805,310.178 265.200,309.973 265.200 C 309.768 265.200,309.600 265.457,309.600 265.771 C 309.600 266.086,309.354 266.589,309.053 266.890 C 308.752 267.191,308.380 267.834,308.226 268.319 C 308.072 268.803,307.798 269.200,307.616 269.200 C 307.435 269.200,307.174 269.650,307.036 270.200 C 306.898 270.750,306.608 271.200,306.392 271.200 C 306.177 271.200,306.000 271.549,306.000 271.976 C 306.000 272.403,305.809 272.871,305.575 273.015 C 305.342 273.160,304.974 273.665,304.758 274.139 C 304.150 275.473,303.337 276.823,302.846 277.314 C 301.702 278.458,302.334 280.168,304.204 280.990 C 305.192 281.424,306.000 281.879,306.000 282.002 C 306.000 282.124,306.495 282.438,307.100 282.698 C 307.705 282.958,308.470 283.352,308.800 283.574 C 310.572 284.764,314.763 287.134,315.523 287.376 C 316.005 287.529,316.400 287.802,316.400 287.984 C 316.400 288.165,316.850 288.426,317.400 288.564 C 317.950 288.702,318.400 288.992,318.400 289.208 C 318.400 289.423,318.602 289.600,318.849 289.600 C 319.213 289.600,322.938 291.680,326.000 293.593 C 326.330 293.799,327.545 294.463,328.700 295.068 C 329.855 295.672,330.800 296.310,330.800 296.484 C 330.800 296.658,331.149 296.800,331.576 296.800 C 332.003 296.800,332.471 296.991,332.615 297.225 C 332.760 297.458,333.265 297.818,333.739 298.024 C 334.212 298.230,334.953 298.624,335.385 298.899 C 337.557 300.285,339.576 301.467,341.200 302.303 C 343.136 303.300,344.034 303.819,349.056 306.841 C 350.846 307.918,352.511 308.800,352.756 308.800 C 353.000 308.800,353.200 308.980,353.200 309.200 C 353.200 309.420,353.457 309.600,353.771 309.600 C 354.086 309.600,354.589 309.825,354.891 310.100 C 355.192 310.375,356.240 311.038,357.219 311.573 C 358.199 312.108,359.505 312.828,360.123 313.173 C 361.212 313.781,361.277 313.763,362.242 312.600 C 363.733 310.801,365.600 308.011,365.600 307.580 C 365.600 307.371,365.780 307.200,366.000 307.200 C 366.220 307.200,366.400 307.029,366.400 306.820 C 366.400 306.611,366.915 305.666,367.545 304.720 C 368.175 303.774,369.120 302.191,369.645 301.201 C 370.170 300.212,370.699 299.312,370.820 299.201 C 371.166 298.884,376.000 288.899,376.000 288.500 C 376.000 288.303,375.235 287.740,374.300 287.249 C 373.365 286.758,372.060 286.009,371.400 285.584 C 370.740 285.159,369.840 284.628,369.400 284.403 C 368.960 284.178,367.700 283.459,366.600 282.807 C 365.500 282.154,364.060 281.346,363.400 281.011 C 362.740 280.676,361.660 280.043,361.000 279.605 C 360.340 279.167,359.531 278.681,359.201 278.524 C 358.872 278.367,356.845 277.195,354.697 275.919 C 352.548 274.644,350.711 273.600,350.613 273.600 C 350.459 273.600,342.020 268.641,340.400 267.598 C 340.070 267.386,339.260 266.947,338.600 266.624 C 337.940 266.301,336.500 265.491,335.400 264.825 C 334.300 264.159,333.040 263.428,332.600 263.200 C 332.160 262.973,331.080 262.364,330.200 261.848 C 329.320 261.332,327.520 260.324,326.200 259.609 C 324.880 258.894,323.516 258.060,323.169 257.755 C 322.821 257.450,322.419 257.200,322.276 257.200 C 322.132 257.200,320.838 256.480,319.400 255.600 C 316.430 253.782,316.724 253.882,316.197 254.515 M120.478 307.700 C 120.230 308.195,119.484 309.500,118.820 310.600 C 118.157 311.700,117.426 312.960,117.197 313.400 C 116.968 313.840,116.163 315.280,115.408 316.600 C 114.653 317.920,113.844 319.360,113.611 319.800 C 113.379 320.240,112.841 321.140,112.416 321.800 C 111.991 322.460,111.229 323.810,110.722 324.800 C 110.215 325.790,109.594 326.819,109.342 327.086 C 109.091 327.354,108.497 328.344,108.023 329.286 C 107.549 330.229,106.990 331.270,106.782 331.600 C 105.120 334.234,101.600 340.487,101.600 340.805 C 101.600 341.022,101.440 341.200,101.243 341.200 C 101.047 341.200,100.774 341.650,100.636 342.200 C 100.498 342.750,100.208 343.200,99.992 343.200 C 99.777 343.200,99.600 343.402,99.600 343.649 C 99.600 344.021,97.064 348.543,95.590 350.800 C 95.374 351.130,95.033 351.779,94.831 352.242 C 94.247 353.582,91.863 357.387,91.516 357.533 C 91.342 357.607,91.200 358.001,91.200 358.410 C 91.200 358.818,91.009 359.271,90.775 359.415 C 90.542 359.560,90.180 360.065,89.971 360.539 C 89.762 361.012,89.151 362.120,88.613 363.000 C 87.154 365.386,87.299 365.998,89.701 367.600 C 90.855 368.370,91.890 369.100,92.000 369.221 C 92.110 369.343,92.920 369.873,93.800 370.400 C 94.680 370.927,95.494 371.491,95.608 371.654 C 95.723 371.817,96.263 372.144,96.808 372.382 C 97.354 372.619,98.700 373.356,99.800 374.018 C 100.900 374.681,102.246 375.409,102.792 375.636 C 103.337 375.864,103.877 376.174,103.992 376.325 C 104.106 376.476,104.830 376.887,105.600 377.237 C 106.370 377.588,108.170 378.443,109.600 379.137 C 111.030 379.832,112.308 380.400,112.440 380.400 C 112.760 380.400,115.053 376.693,115.389 375.634 C 115.535 375.175,115.822 374.800,116.027 374.800 C 116.232 374.800,116.400 374.598,116.400 374.351 C 116.400 373.979,118.936 369.457,120.410 367.200 C 120.626 366.870,120.967 366.221,121.169 365.758 C 121.753 364.418,124.137 360.613,124.484 360.467 C 124.658 360.393,124.800 359.999,124.800 359.590 C 124.800 359.182,124.961 358.747,125.159 358.626 C 125.356 358.504,125.915 357.638,126.401 356.702 C 126.887 355.766,127.806 354.226,128.443 353.280 C 129.079 352.334,129.600 351.293,129.600 350.967 C 129.600 350.642,129.870 350.271,130.200 350.145 C 130.530 350.018,130.800 349.596,130.800 349.206 C 130.800 348.817,131.070 348.274,131.400 348.000 C 131.730 347.726,132.000 347.325,132.000 347.109 C 132.000 346.893,132.540 345.916,133.200 344.938 C 133.860 343.960,134.400 343.082,134.400 342.987 C 134.400 342.892,135.097 341.675,135.949 340.284 C 136.800 338.892,137.623 337.359,137.776 336.877 C 137.929 336.395,138.210 336.000,138.400 336.000 C 138.590 336.000,138.871 335.605,139.024 335.123 C 139.260 334.382,141.472 330.456,142.814 328.400 C 143.030 328.070,143.426 327.350,143.695 326.800 C 143.964 326.250,144.279 325.710,144.395 325.600 C 144.511 325.490,145.115 324.447,145.738 323.283 C 147.037 320.851,146.968 320.674,144.136 319.200 C 143.079 318.650,141.973 317.975,141.679 317.700 C 141.384 317.425,140.886 317.200,140.571 317.200 C 140.257 317.200,140.000 317.020,140.000 316.800 C 140.000 316.580,139.743 316.400,139.429 316.400 C 139.114 316.400,138.619 316.173,138.329 315.895 C 138.038 315.618,137.350 315.174,136.800 314.909 C 136.250 314.644,134.900 313.884,133.800 313.220 C 132.700 312.557,131.440 311.829,131.000 311.604 C 130.560 311.379,129.120 310.564,127.800 309.792 C 126.480 309.021,125.012 308.223,124.539 308.020 C 124.065 307.816,123.560 307.458,123.415 307.225 C 122.921 306.425,120.957 306.742,120.478 307.700 M272.914 307.246 C 272.410 307.750,271.703 308.168,268.934 309.600 C 267.870 310.150,266.762 310.825,266.471 311.100 C 266.181 311.375,265.686 311.600,265.371 311.600 C 265.057 311.600,264.800 311.768,264.800 311.973 C 264.800 312.178,264.395 312.475,263.900 312.631 C 263.405 312.788,262.280 313.380,261.400 313.945 C 260.520 314.511,259.260 315.272,258.600 315.637 C 257.940 316.001,256.770 316.682,256.000 317.149 C 255.230 317.617,254.105 318.197,253.500 318.439 C 252.895 318.681,252.400 319.029,252.400 319.212 C 252.400 319.396,252.003 319.672,251.519 319.826 C 249.680 320.409,249.483 321.031,250.586 322.778 C 251.144 323.661,251.600 324.546,251.600 324.743 C 251.600 324.941,251.870 325.326,252.200 325.600 C 252.530 325.874,252.800 326.436,252.800 326.849 C 252.800 327.262,252.947 327.600,253.126 327.600 C 253.305 327.600,253.749 328.185,254.113 328.900 C 254.476 329.615,255.317 331.100,255.980 332.200 C 256.644 333.300,257.358 334.588,257.569 335.061 C 257.779 335.535,258.142 336.040,258.375 336.185 C 258.609 336.329,258.800 336.797,258.800 337.224 C 258.800 337.651,258.939 338.000,259.108 338.000 C 259.278 338.000,259.863 338.855,260.408 339.900 C 260.954 340.945,261.524 341.894,261.675 342.008 C 261.826 342.123,262.143 342.663,262.380 343.208 C 262.819 344.222,263.039 344.604,266.441 350.256 C 267.518 352.046,268.400 353.711,268.400 353.956 C 268.400 354.200,268.580 354.400,268.800 354.400 C 269.020 354.400,269.200 354.648,269.200 354.951 C 269.200 355.254,269.470 355.726,269.800 356.000 C 270.130 356.274,270.400 356.737,270.400 357.029 C 270.400 357.321,270.921 358.334,271.557 359.280 C 272.194 360.226,273.103 361.720,273.578 362.600 C 274.053 363.480,274.605 364.470,274.805 364.800 C 275.005 365.130,275.996 366.840,277.006 368.600 C 278.017 370.360,279.015 372.070,279.223 372.400 C 279.431 372.730,279.784 373.360,280.007 373.800 C 280.230 374.240,280.759 375.140,281.184 375.800 C 281.609 376.460,282.358 377.765,282.849 378.700 C 283.796 380.503,284.005 380.625,285.105 380.015 C 285.487 379.804,287.600 378.750,289.800 377.675 C 294.310 375.469,296.505 374.308,296.800 373.971 C 296.910 373.845,297.270 373.616,297.600 373.463 C 299.057 372.786,306.045 368.387,306.731 367.715 C 307.023 367.429,307.608 367.010,308.031 366.783 C 309.134 366.193,308.986 364.715,307.600 362.462 C 306.940 361.389,306.400 360.306,306.400 360.056 C 306.400 359.805,306.223 359.600,306.008 359.600 C 305.792 359.600,305.502 359.150,305.364 358.600 C 305.226 358.050,304.953 357.600,304.757 357.600 C 304.560 357.600,304.400 357.400,304.400 357.156 C 304.400 356.911,303.518 355.246,302.441 353.456 C 299.088 347.884,298.820 347.423,298.438 346.561 C 298.106 345.811,295.389 341.142,294.388 339.600 C 294.173 339.270,293.816 338.640,293.593 338.200 C 293.370 337.760,292.841 336.860,292.416 336.200 C 291.991 335.540,291.229 334.190,290.722 333.200 C 290.215 332.210,289.677 331.306,289.525 331.192 C 289.374 331.077,289.056 330.537,288.819 329.992 C 288.582 329.446,288.039 328.460,287.613 327.800 C 286.416 325.945,285.882 325.022,284.800 322.932 C 284.251 321.869,283.677 320.906,283.525 320.792 C 283.374 320.677,283.059 320.137,282.826 319.592 C 282.593 319.046,282.225 318.330,282.009 318.000 C 280.887 316.288,276.117 308.104,275.889 307.500 C 275.589 306.703,273.624 306.536,272.914 307.246 M183.467 329.467 C 183.320 329.613,183.200 345.363,183.200 364.467 L 183.200 399.200 198.200 399.200 L 213.200 399.200 213.200 364.200 L 213.200 329.200 198.467 329.200 C 190.363 329.200,183.613 329.320,183.467 329.467 " stroke="none" fill="#fcd444" fill-rule="evenodd"></path>
            </g>
        </g>
    </symbol>
</svg>
