<!--
 Sourced from: https://github.com/jenkins-contrib-themes/jenkins-core-theme/tree/master/images
 License: MIT
 -->
<svg width="0" height="0" class="hidden" xmlns="http://www.w3.org/2000/svg">
<!-- 	Component symbols -->
	<symbol id="w-sun" >
		<g style="fill:#FF9800;stroke:#0B6AA2;stroke-width:4;stroke-linecap:butt">
			<circle cx="32" cy="32" r="16" style="stroke-width:6"/>
			<path d="M32 10 v-10 M32 54 v10 M10 32 h-10 M54 32 h10"/>
			<path d="M16 16 l-10 -10 M16 48 l-10 10  M48 16 l10 -10 M48 48 l10 10" style="fill:#0B6AA2;stroke:#FF9800"/>
		</g>
	</symbol>
	<symbol id="w-cloud" >
		<g style="stroke:#0B6AA2;stroke-width:6">
			<path d="M 30 12 A 18 18 0 0 0 12 24 A 12 12 0 0 0 3 36 A 12 12 0 0 0 15 48
						L 30 48 L 47 48
						A 14 14 0 0 0 61 34 A 14 14 0 0 0 47 20 A 14 14 0 0 0 44 20 A 18 18 0 0 0 30 12 z"/>
		</g>
	</symbol>
	<symbol id="w-lightning" >
		<g>
			<path d="M36 28 l-8 16 h8 l-8 16" style="fill:none;stroke:#FF9800;stroke-width:6;stroke-linecap:miter"/>
		</g>
	</symbol>
	<symbol id="w-drop" >
		<g>
			<path d="M12 4 v10" transform="matrix(1,0,-.5773,1,0,0)" style="fill:none;stroke:#0B6AA2;stroke-width:6"/>
		</g>
	</symbol>
	<symbol id="w-droplet" >
		<g>
			<use href="#w-drop" transform="matrix(1,0,.2679,.5,-1,2)"/>
		</g>
	</symbol>
	<symbol id="w-sprinkle" >
		<g>
			<circle cx="4" cy="4" r="2" style="fill:#0B6AA2;stroke:#0B6AA2"/>
		</g>
	</symbol>

<!-- 	Project Health states -->
	<symbol viewBox="0 0 64 64" id="weather-pouring">
		<g id="storm-lightning">
		<title>Stormy! 0 - 20%</title>
			<use href="#w-cloud" style="fill:#808080"/>
			<use href="#w-lightning"/>
			<use href="#w-droplet" transform="translate(10,50)"/>
			<use href="#w-droplet" transform="translate(34,50)"/>
		</g>
	</symbol>
	<symbol viewBox="0 0 64 64" id="weather-rainy">
		<g id="rain-pouring">
			<use href="#w-cloud" style="fill:#A0A0A0"/>
		<title>Raining; 20 - 40%</title>
			<use href="#w-drop" transform="translate(12,50)"/>
			<use href="#w-drop" transform="translate(20,50)"/>
			<use href="#w-drop" transform="translate(28,50)"/>
			<use href="#w-drop" transform="translate(36,50)"/>
		</g>
	</symbol>
	<symbol viewBox="0 0 64 64" id="weather-cloudy">
		<g id="cloudy">
		<title>Cloudy; 40 - 60%</title>
			<use href="#w-cloud" style="fill:#D0D0D0"/>
			<use href="#w-cloud" style="fill:#D0D0D0" transform="matrix(0.50,0,0,0.50,24,32)"/>
		</g>
	</symbol>
	<symbol viewBox="0 0 64 64" id="weather-partly-cloudy">
		<title>Partly Cloudy; 60 - 80%</title>
		<g id="sunny-mostly">
			<use href="#w-sun"/>
			<use href="#w-cloud" style="fill:#F0F0F0" transform="matrix(0.50,0,0,0.50,6,20)"/>
			<use href="#w-cloud" style="fill:#F0F0F0" transform="matrix(0.50,0,0,0.50,24,32)"/>
		</g>
	</symbol>
	<symbol viewBox="0 0 64 64" id="weather-sunny">
		<title>Sunny! 80 - 100%</title>
		<g id="sunny">
			<use href="#w-sun"/>
		</g>
	</symbol>
</svg>
